%TF.GenerationSoftware,KiCad,Pcbnew,4.0.6*%
%TF.CreationDate,2017-08-02T23:43:12-07:00*%
%TF.ProjectId,difficult-button,646966666963756C742D627574746F6E,rev?*%
%TF.FileFunction,Legend,Top*%
%FSLAX46Y46*%
G04 Gerber Fmt 4.6, Leading zero omitted, Abs format (unit mm)*
G04 Created by KiCad (PCBNEW 4.0.6) date 08/02/17 23:43:12*
%MOMM*%
%LPD*%
G01*
G04 APERTURE LIST*
%ADD10C,0.100000*%
%ADD11C,0.150000*%
%ADD12C,0.120000*%
%ADD13C,0.010000*%
%ADD14C,2.400000*%
%ADD15R,1.400000X1.400000*%
%ADD16C,3.400000*%
%ADD17C,6.400000*%
%ADD18R,1.600000X1.150000*%
%ADD19R,1.600000X1.300000*%
%ADD20R,2.100000X2.100000*%
%ADD21O,2.100000X2.100000*%
%ADD22C,0.254000*%
G04 APERTURE END LIST*
D10*
D11*
X28662286Y-18710476D02*
X27852762Y-18710476D01*
X27757524Y-18662857D01*
X27709905Y-18615238D01*
X27662286Y-18519999D01*
X27662286Y-18377142D01*
X27709905Y-18281904D01*
X28043238Y-18710476D02*
X27995619Y-18615238D01*
X27995619Y-18424761D01*
X28043238Y-18329523D01*
X28090857Y-18281904D01*
X28186095Y-18234285D01*
X28471810Y-18234285D01*
X28567048Y-18281904D01*
X28614667Y-18329523D01*
X28662286Y-18424761D01*
X28662286Y-18615238D01*
X28614667Y-18710476D01*
X27995619Y-19186666D02*
X28662286Y-19186666D01*
X28995619Y-19186666D02*
X28948000Y-19139047D01*
X28900381Y-19186666D01*
X28948000Y-19234285D01*
X28995619Y-19186666D01*
X28900381Y-19186666D01*
X28662286Y-19519999D02*
X28662286Y-19900951D01*
X28995619Y-19662856D02*
X28138476Y-19662856D01*
X28043238Y-19710475D01*
X27995619Y-19805713D01*
X27995619Y-19900951D01*
X27995619Y-20234285D02*
X28995619Y-20234285D01*
X27995619Y-20662857D02*
X28519429Y-20662857D01*
X28614667Y-20615238D01*
X28662286Y-20520000D01*
X28662286Y-20377142D01*
X28614667Y-20281904D01*
X28567048Y-20234285D01*
X28662286Y-21567619D02*
X27995619Y-21567619D01*
X28662286Y-21139047D02*
X28138476Y-21139047D01*
X28043238Y-21186666D01*
X27995619Y-21281904D01*
X27995619Y-21424762D01*
X28043238Y-21520000D01*
X28090857Y-21567619D01*
X27995619Y-22043809D02*
X28995619Y-22043809D01*
X28614667Y-22043809D02*
X28662286Y-22139047D01*
X28662286Y-22329524D01*
X28614667Y-22424762D01*
X28567048Y-22472381D01*
X28471810Y-22520000D01*
X28186095Y-22520000D01*
X28090857Y-22472381D01*
X28043238Y-22424762D01*
X27995619Y-22329524D01*
X27995619Y-22139047D01*
X28043238Y-22043809D01*
X28090857Y-22948571D02*
X28043238Y-22996190D01*
X27995619Y-22948571D01*
X28043238Y-22900952D01*
X28090857Y-22948571D01*
X27995619Y-22948571D01*
X28043238Y-23853333D02*
X27995619Y-23758095D01*
X27995619Y-23567618D01*
X28043238Y-23472380D01*
X28090857Y-23424761D01*
X28186095Y-23377142D01*
X28471810Y-23377142D01*
X28567048Y-23424761D01*
X28614667Y-23472380D01*
X28662286Y-23567618D01*
X28662286Y-23758095D01*
X28614667Y-23853333D01*
X27995619Y-24424761D02*
X28043238Y-24329523D01*
X28090857Y-24281904D01*
X28186095Y-24234285D01*
X28471810Y-24234285D01*
X28567048Y-24281904D01*
X28614667Y-24329523D01*
X28662286Y-24424761D01*
X28662286Y-24567619D01*
X28614667Y-24662857D01*
X28567048Y-24710476D01*
X28471810Y-24758095D01*
X28186095Y-24758095D01*
X28090857Y-24710476D01*
X28043238Y-24662857D01*
X27995619Y-24567619D01*
X27995619Y-24424761D01*
X27995619Y-25186666D02*
X28662286Y-25186666D01*
X28567048Y-25186666D02*
X28614667Y-25234285D01*
X28662286Y-25329523D01*
X28662286Y-25472381D01*
X28614667Y-25567619D01*
X28519429Y-25615238D01*
X27995619Y-25615238D01*
X28519429Y-25615238D02*
X28614667Y-25662857D01*
X28662286Y-25758095D01*
X28662286Y-25900952D01*
X28614667Y-25996190D01*
X28519429Y-26043809D01*
X27995619Y-26043809D01*
X29043238Y-27234285D02*
X27757524Y-26377142D01*
X28519429Y-27900952D02*
X28519429Y-27567618D01*
X27995619Y-27567618D02*
X28995619Y-27567618D01*
X28995619Y-28043809D01*
X27995619Y-28424761D02*
X28662286Y-28424761D01*
X28995619Y-28424761D02*
X28948000Y-28377142D01*
X28900381Y-28424761D01*
X28948000Y-28472380D01*
X28995619Y-28424761D01*
X28900381Y-28424761D01*
X28662286Y-28758094D02*
X28662286Y-29139046D01*
X27995619Y-28900951D02*
X28852762Y-28900951D01*
X28948000Y-28948570D01*
X28995619Y-29043808D01*
X28995619Y-29139046D01*
X28662286Y-29329523D02*
X28662286Y-29710475D01*
X28995619Y-29472380D02*
X28138476Y-29472380D01*
X28043238Y-29519999D01*
X27995619Y-29615237D01*
X27995619Y-29710475D01*
X28662286Y-29948571D02*
X27995619Y-30186666D01*
X28662286Y-30424762D02*
X27995619Y-30186666D01*
X27757524Y-30091428D01*
X27709905Y-30043809D01*
X27662286Y-29948571D01*
X28376571Y-30805714D02*
X28376571Y-31567619D01*
X27995619Y-32043809D02*
X28995619Y-32043809D01*
X27995619Y-32615238D01*
X28995619Y-32615238D01*
X27995619Y-33091428D02*
X28662286Y-33091428D01*
X28995619Y-33091428D02*
X28948000Y-33043809D01*
X28900381Y-33091428D01*
X28948000Y-33139047D01*
X28995619Y-33091428D01*
X28900381Y-33091428D01*
X28662286Y-33567618D02*
X27995619Y-33567618D01*
X28567048Y-33567618D02*
X28614667Y-33615237D01*
X28662286Y-33710475D01*
X28662286Y-33853333D01*
X28614667Y-33948571D01*
X28519429Y-33996190D01*
X27995619Y-33996190D01*
X28043238Y-34853333D02*
X27995619Y-34758095D01*
X27995619Y-34567618D01*
X28043238Y-34472380D01*
X28138476Y-34424761D01*
X28519429Y-34424761D01*
X28614667Y-34472380D01*
X28662286Y-34567618D01*
X28662286Y-34758095D01*
X28614667Y-34853333D01*
X28519429Y-34900952D01*
X28424190Y-34900952D01*
X28328952Y-34424761D01*
X29043238Y-36043809D02*
X27757524Y-35186666D01*
X27995619Y-36805714D02*
X28995619Y-36805714D01*
X28043238Y-36805714D02*
X27995619Y-36710476D01*
X27995619Y-36519999D01*
X28043238Y-36424761D01*
X28090857Y-36377142D01*
X28186095Y-36329523D01*
X28471810Y-36329523D01*
X28567048Y-36377142D01*
X28614667Y-36424761D01*
X28662286Y-36519999D01*
X28662286Y-36710476D01*
X28614667Y-36805714D01*
X27995619Y-37281904D02*
X28662286Y-37281904D01*
X28995619Y-37281904D02*
X28948000Y-37234285D01*
X28900381Y-37281904D01*
X28948000Y-37329523D01*
X28995619Y-37281904D01*
X28900381Y-37281904D01*
X28662286Y-37615237D02*
X28662286Y-37996189D01*
X27995619Y-37758094D02*
X28852762Y-37758094D01*
X28948000Y-37805713D01*
X28995619Y-37900951D01*
X28995619Y-37996189D01*
X28662286Y-38186666D02*
X28662286Y-38567618D01*
X27995619Y-38329523D02*
X28852762Y-38329523D01*
X28948000Y-38377142D01*
X28995619Y-38472380D01*
X28995619Y-38567618D01*
X27995619Y-38900952D02*
X28662286Y-38900952D01*
X28995619Y-38900952D02*
X28948000Y-38853333D01*
X28900381Y-38900952D01*
X28948000Y-38948571D01*
X28995619Y-38900952D01*
X28900381Y-38900952D01*
X28043238Y-39805714D02*
X27995619Y-39710476D01*
X27995619Y-39519999D01*
X28043238Y-39424761D01*
X28090857Y-39377142D01*
X28186095Y-39329523D01*
X28471810Y-39329523D01*
X28567048Y-39377142D01*
X28614667Y-39424761D01*
X28662286Y-39519999D01*
X28662286Y-39710476D01*
X28614667Y-39805714D01*
X28662286Y-40662857D02*
X27995619Y-40662857D01*
X28662286Y-40234285D02*
X28138476Y-40234285D01*
X28043238Y-40281904D01*
X27995619Y-40377142D01*
X27995619Y-40520000D01*
X28043238Y-40615238D01*
X28090857Y-40662857D01*
X27995619Y-41281904D02*
X28043238Y-41186666D01*
X28138476Y-41139047D01*
X28995619Y-41139047D01*
X28662286Y-41520000D02*
X28662286Y-41900952D01*
X28995619Y-41662857D02*
X28138476Y-41662857D01*
X28043238Y-41710476D01*
X27995619Y-41805714D01*
X27995619Y-41900952D01*
X28376571Y-42234286D02*
X28376571Y-42996191D01*
X27995619Y-43472381D02*
X28995619Y-43472381D01*
X28614667Y-43472381D02*
X28662286Y-43567619D01*
X28662286Y-43758096D01*
X28614667Y-43853334D01*
X28567048Y-43900953D01*
X28471810Y-43948572D01*
X28186095Y-43948572D01*
X28090857Y-43900953D01*
X28043238Y-43853334D01*
X27995619Y-43758096D01*
X27995619Y-43567619D01*
X28043238Y-43472381D01*
X28662286Y-44805715D02*
X27995619Y-44805715D01*
X28662286Y-44377143D02*
X28138476Y-44377143D01*
X28043238Y-44424762D01*
X27995619Y-44520000D01*
X27995619Y-44662858D01*
X28043238Y-44758096D01*
X28090857Y-44805715D01*
X28662286Y-45139048D02*
X28662286Y-45520000D01*
X28995619Y-45281905D02*
X28138476Y-45281905D01*
X28043238Y-45329524D01*
X27995619Y-45424762D01*
X27995619Y-45520000D01*
X28662286Y-45710477D02*
X28662286Y-46091429D01*
X28995619Y-45853334D02*
X28138476Y-45853334D01*
X28043238Y-45900953D01*
X27995619Y-45996191D01*
X27995619Y-46091429D01*
X27995619Y-46567620D02*
X28043238Y-46472382D01*
X28090857Y-46424763D01*
X28186095Y-46377144D01*
X28471810Y-46377144D01*
X28567048Y-46424763D01*
X28614667Y-46472382D01*
X28662286Y-46567620D01*
X28662286Y-46710478D01*
X28614667Y-46805716D01*
X28567048Y-46853335D01*
X28471810Y-46900954D01*
X28186095Y-46900954D01*
X28090857Y-46853335D01*
X28043238Y-46805716D01*
X27995619Y-46710478D01*
X27995619Y-46567620D01*
X28662286Y-47329525D02*
X27995619Y-47329525D01*
X28567048Y-47329525D02*
X28614667Y-47377144D01*
X28662286Y-47472382D01*
X28662286Y-47615240D01*
X28614667Y-47710478D01*
X28519429Y-47758097D01*
X27995619Y-47758097D01*
D12*
X63808000Y-38008000D02*
X64508000Y-38008000D01*
X64508000Y-39208000D02*
X63808000Y-39208000D01*
X66690000Y-36300000D02*
X65690000Y-36300000D01*
X65690000Y-34940000D02*
X66690000Y-34940000D01*
X66690000Y-31728000D02*
X65690000Y-31728000D01*
X65690000Y-30368000D02*
X66690000Y-30368000D01*
X24604000Y-47110000D02*
X27264000Y-47110000D01*
X24604000Y-44510000D02*
X24604000Y-47110000D01*
X27264000Y-44510000D02*
X27264000Y-47110000D01*
X24604000Y-44510000D02*
X27264000Y-44510000D01*
X24604000Y-43240000D02*
X24604000Y-41910000D01*
X24604000Y-41910000D02*
X25934000Y-41910000D01*
X72734000Y-24250000D02*
X75394000Y-24250000D01*
X72734000Y-21650000D02*
X72734000Y-24250000D01*
X75394000Y-21650000D02*
X75394000Y-24250000D01*
X72734000Y-21650000D02*
X75394000Y-21650000D01*
X72734000Y-20380000D02*
X72734000Y-19050000D01*
X72734000Y-19050000D02*
X74064000Y-19050000D01*
D13*
G36*
X32834322Y-29772038D02*
X32801236Y-29846453D01*
X32752281Y-29910248D01*
X32688653Y-29959328D01*
X32627728Y-29985320D01*
X32598443Y-29990734D01*
X32549837Y-29996214D01*
X32487984Y-30001211D01*
X32418955Y-30005178D01*
X32397700Y-30006087D01*
X32265148Y-30007947D01*
X32155313Y-30002075D01*
X32066661Y-29988282D01*
X31997653Y-29966375D01*
X31971170Y-29952988D01*
X31905538Y-29900702D01*
X31857079Y-29833572D01*
X31826599Y-29756182D01*
X31814906Y-29673113D01*
X31822809Y-29588948D01*
X31851115Y-29508269D01*
X31883600Y-29456194D01*
X31903357Y-29428688D01*
X31914316Y-29410320D01*
X31915100Y-29407697D01*
X31902918Y-29405894D01*
X31868440Y-29404256D01*
X31814772Y-29402842D01*
X31745018Y-29401711D01*
X31662282Y-29400921D01*
X31569670Y-29400531D01*
X31534184Y-29400500D01*
X31153268Y-29400500D01*
X31197113Y-29457940D01*
X31224066Y-29499509D01*
X31244527Y-29542298D01*
X31250854Y-29562715D01*
X31258598Y-29626441D01*
X31258070Y-29695098D01*
X31249829Y-29758062D01*
X31238582Y-29795972D01*
X31202643Y-29856669D01*
X31150312Y-29914695D01*
X31089891Y-29961436D01*
X31066568Y-29974432D01*
X31048916Y-29982703D01*
X31031213Y-29989294D01*
X31010394Y-29994433D01*
X30983392Y-29998349D01*
X30947140Y-30001269D01*
X30898574Y-30003421D01*
X30834626Y-30005034D01*
X30752230Y-30006335D01*
X30648321Y-30007553D01*
X30616525Y-30007893D01*
X30226000Y-30012037D01*
X30226000Y-29794200D01*
X30545202Y-29794200D01*
X30664778Y-29793524D01*
X30762853Y-29791523D01*
X30838405Y-29788239D01*
X30890411Y-29783714D01*
X30914112Y-29779307D01*
X30967038Y-29751841D01*
X31011703Y-29707480D01*
X31040881Y-29654164D01*
X31046229Y-29634165D01*
X31045509Y-29581334D01*
X31028448Y-29524324D01*
X30999243Y-29473876D01*
X30973499Y-29447977D01*
X30951855Y-29434409D01*
X30925430Y-29423683D01*
X30891171Y-29415478D01*
X30846024Y-29409472D01*
X30786937Y-29405344D01*
X30710855Y-29402773D01*
X30614726Y-29401437D01*
X30527625Y-29401053D01*
X30226000Y-29400500D01*
X30226000Y-29301016D01*
X30227013Y-29252965D01*
X30229697Y-29215244D01*
X30233520Y-29194636D01*
X30234467Y-29193066D01*
X30248074Y-29191897D01*
X30285385Y-29190776D01*
X30344706Y-29189713D01*
X30424340Y-29188720D01*
X30522593Y-29187808D01*
X30637768Y-29186988D01*
X30768171Y-29186270D01*
X30912106Y-29185666D01*
X31067877Y-29185186D01*
X31233790Y-29184842D01*
X31408149Y-29184645D01*
X31542567Y-29184600D01*
X32327271Y-29184600D01*
X32327271Y-29419550D01*
X32253394Y-29420020D01*
X32200238Y-29421766D01*
X32163137Y-29425288D01*
X32137422Y-29431088D01*
X32118428Y-29439668D01*
X32113940Y-29442465D01*
X32067807Y-29486844D01*
X32039073Y-29544229D01*
X32029273Y-29607830D01*
X32039939Y-29670858D01*
X32055126Y-29702889D01*
X32079633Y-29734912D01*
X32110935Y-29758105D01*
X32153108Y-29773706D01*
X32210229Y-29782950D01*
X32286372Y-29787077D01*
X32334200Y-29787610D01*
X32403991Y-29787142D01*
X32454117Y-29785020D01*
X32490294Y-29780532D01*
X32518240Y-29772968D01*
X32543671Y-29761619D01*
X32543750Y-29761578D01*
X32593184Y-29722855D01*
X32625472Y-29670298D01*
X32639029Y-29610145D01*
X32632271Y-29548636D01*
X32609951Y-29500803D01*
X32587301Y-29471132D01*
X32562417Y-29449596D01*
X32530918Y-29434935D01*
X32488423Y-29425890D01*
X32430551Y-29421202D01*
X32352920Y-29419611D01*
X32327271Y-29419550D01*
X32327271Y-29184600D01*
X32842200Y-29184600D01*
X32842200Y-29398966D01*
X32752026Y-29406850D01*
X32784048Y-29450096D01*
X32826402Y-29526031D01*
X32848101Y-29607731D01*
X32850343Y-29691098D01*
X32834322Y-29772038D01*
X32834322Y-29772038D01*
G37*
X32834322Y-29772038D02*
X32801236Y-29846453D01*
X32752281Y-29910248D01*
X32688653Y-29959328D01*
X32627728Y-29985320D01*
X32598443Y-29990734D01*
X32549837Y-29996214D01*
X32487984Y-30001211D01*
X32418955Y-30005178D01*
X32397700Y-30006087D01*
X32265148Y-30007947D01*
X32155313Y-30002075D01*
X32066661Y-29988282D01*
X31997653Y-29966375D01*
X31971170Y-29952988D01*
X31905538Y-29900702D01*
X31857079Y-29833572D01*
X31826599Y-29756182D01*
X31814906Y-29673113D01*
X31822809Y-29588948D01*
X31851115Y-29508269D01*
X31883600Y-29456194D01*
X31903357Y-29428688D01*
X31914316Y-29410320D01*
X31915100Y-29407697D01*
X31902918Y-29405894D01*
X31868440Y-29404256D01*
X31814772Y-29402842D01*
X31745018Y-29401711D01*
X31662282Y-29400921D01*
X31569670Y-29400531D01*
X31534184Y-29400500D01*
X31153268Y-29400500D01*
X31197113Y-29457940D01*
X31224066Y-29499509D01*
X31244527Y-29542298D01*
X31250854Y-29562715D01*
X31258598Y-29626441D01*
X31258070Y-29695098D01*
X31249829Y-29758062D01*
X31238582Y-29795972D01*
X31202643Y-29856669D01*
X31150312Y-29914695D01*
X31089891Y-29961436D01*
X31066568Y-29974432D01*
X31048916Y-29982703D01*
X31031213Y-29989294D01*
X31010394Y-29994433D01*
X30983392Y-29998349D01*
X30947140Y-30001269D01*
X30898574Y-30003421D01*
X30834626Y-30005034D01*
X30752230Y-30006335D01*
X30648321Y-30007553D01*
X30616525Y-30007893D01*
X30226000Y-30012037D01*
X30226000Y-29794200D01*
X30545202Y-29794200D01*
X30664778Y-29793524D01*
X30762853Y-29791523D01*
X30838405Y-29788239D01*
X30890411Y-29783714D01*
X30914112Y-29779307D01*
X30967038Y-29751841D01*
X31011703Y-29707480D01*
X31040881Y-29654164D01*
X31046229Y-29634165D01*
X31045509Y-29581334D01*
X31028448Y-29524324D01*
X30999243Y-29473876D01*
X30973499Y-29447977D01*
X30951855Y-29434409D01*
X30925430Y-29423683D01*
X30891171Y-29415478D01*
X30846024Y-29409472D01*
X30786937Y-29405344D01*
X30710855Y-29402773D01*
X30614726Y-29401437D01*
X30527625Y-29401053D01*
X30226000Y-29400500D01*
X30226000Y-29301016D01*
X30227013Y-29252965D01*
X30229697Y-29215244D01*
X30233520Y-29194636D01*
X30234467Y-29193066D01*
X30248074Y-29191897D01*
X30285385Y-29190776D01*
X30344706Y-29189713D01*
X30424340Y-29188720D01*
X30522593Y-29187808D01*
X30637768Y-29186988D01*
X30768171Y-29186270D01*
X30912106Y-29185666D01*
X31067877Y-29185186D01*
X31233790Y-29184842D01*
X31408149Y-29184645D01*
X31542567Y-29184600D01*
X32327271Y-29184600D01*
X32327271Y-29419550D01*
X32253394Y-29420020D01*
X32200238Y-29421766D01*
X32163137Y-29425288D01*
X32137422Y-29431088D01*
X32118428Y-29439668D01*
X32113940Y-29442465D01*
X32067807Y-29486844D01*
X32039073Y-29544229D01*
X32029273Y-29607830D01*
X32039939Y-29670858D01*
X32055126Y-29702889D01*
X32079633Y-29734912D01*
X32110935Y-29758105D01*
X32153108Y-29773706D01*
X32210229Y-29782950D01*
X32286372Y-29787077D01*
X32334200Y-29787610D01*
X32403991Y-29787142D01*
X32454117Y-29785020D01*
X32490294Y-29780532D01*
X32518240Y-29772968D01*
X32543671Y-29761619D01*
X32543750Y-29761578D01*
X32593184Y-29722855D01*
X32625472Y-29670298D01*
X32639029Y-29610145D01*
X32632271Y-29548636D01*
X32609951Y-29500803D01*
X32587301Y-29471132D01*
X32562417Y-29449596D01*
X32530918Y-29434935D01*
X32488423Y-29425890D01*
X32430551Y-29421202D01*
X32352920Y-29419611D01*
X32327271Y-29419550D01*
X32327271Y-29184600D01*
X32842200Y-29184600D01*
X32842200Y-29398966D01*
X32752026Y-29406850D01*
X32784048Y-29450096D01*
X32826402Y-29526031D01*
X32848101Y-29607731D01*
X32850343Y-29691098D01*
X32834322Y-29772038D01*
G36*
X31257055Y-30627322D02*
X31251940Y-30681234D01*
X31242371Y-30726029D01*
X31230210Y-30762163D01*
X31190375Y-30835649D01*
X31134672Y-30894775D01*
X31067650Y-30935405D01*
X31024692Y-30949015D01*
X30993702Y-30952851D01*
X30940701Y-30956199D01*
X30869073Y-30958954D01*
X30782206Y-30961008D01*
X30683484Y-30962254D01*
X30593675Y-30962600D01*
X30226000Y-30962600D01*
X30226000Y-30746700D01*
X30303493Y-30746700D01*
X30268174Y-30700394D01*
X30251883Y-30677099D01*
X30241332Y-30654361D01*
X30235089Y-30625657D01*
X30231723Y-30584463D01*
X30229836Y-30525769D01*
X30229549Y-30467683D01*
X30231239Y-30416162D01*
X30234572Y-30378463D01*
X30237184Y-30365617D01*
X30274721Y-30286103D01*
X30328048Y-30222494D01*
X30393324Y-30175909D01*
X30466707Y-30147465D01*
X30544356Y-30138279D01*
X30546994Y-30138657D01*
X30546994Y-30346561D01*
X30502337Y-30355456D01*
X30464756Y-30384474D01*
X30449860Y-30407524D01*
X30438994Y-30444431D01*
X30432066Y-30497423D01*
X30429348Y-30557452D01*
X30431108Y-30615470D01*
X30437618Y-30662427D01*
X30441820Y-30676637D01*
X30466737Y-30708674D01*
X30510933Y-30732288D01*
X30569018Y-30745092D01*
X30600243Y-30746700D01*
X30657800Y-30746700D01*
X30657800Y-30604726D01*
X30656008Y-30521611D01*
X30649923Y-30459736D01*
X30638482Y-30415146D01*
X30620622Y-30383889D01*
X30595280Y-30362009D01*
X30592025Y-30360026D01*
X30546994Y-30346561D01*
X30546994Y-30138657D01*
X30622431Y-30149468D01*
X30697090Y-30182151D01*
X30744761Y-30217960D01*
X30774338Y-30248234D01*
X30796362Y-30280660D01*
X30812022Y-30319646D01*
X30822506Y-30369598D01*
X30829002Y-30434925D01*
X30832697Y-30520035D01*
X30833363Y-30546675D01*
X30837832Y-30746700D01*
X30905858Y-30746700D01*
X30965521Y-30740041D01*
X31007524Y-30718037D01*
X31035362Y-30677645D01*
X31051832Y-30619700D01*
X31059060Y-30534346D01*
X31048279Y-30458926D01*
X31020176Y-30397907D01*
X31017014Y-30393532D01*
X30985575Y-30351514D01*
X31018368Y-30304632D01*
X31047146Y-30264921D01*
X31076592Y-30226358D01*
X31081947Y-30219650D01*
X31112731Y-30181550D01*
X31163371Y-30234698D01*
X31204458Y-30286537D01*
X31232946Y-30344896D01*
X31250331Y-30414813D01*
X31258108Y-30501322D01*
X31258842Y-30556200D01*
X31257055Y-30627322D01*
X31257055Y-30627322D01*
G37*
X31257055Y-30627322D02*
X31251940Y-30681234D01*
X31242371Y-30726029D01*
X31230210Y-30762163D01*
X31190375Y-30835649D01*
X31134672Y-30894775D01*
X31067650Y-30935405D01*
X31024692Y-30949015D01*
X30993702Y-30952851D01*
X30940701Y-30956199D01*
X30869073Y-30958954D01*
X30782206Y-30961008D01*
X30683484Y-30962254D01*
X30593675Y-30962600D01*
X30226000Y-30962600D01*
X30226000Y-30746700D01*
X30303493Y-30746700D01*
X30268174Y-30700394D01*
X30251883Y-30677099D01*
X30241332Y-30654361D01*
X30235089Y-30625657D01*
X30231723Y-30584463D01*
X30229836Y-30525769D01*
X30229549Y-30467683D01*
X30231239Y-30416162D01*
X30234572Y-30378463D01*
X30237184Y-30365617D01*
X30274721Y-30286103D01*
X30328048Y-30222494D01*
X30393324Y-30175909D01*
X30466707Y-30147465D01*
X30544356Y-30138279D01*
X30546994Y-30138657D01*
X30546994Y-30346561D01*
X30502337Y-30355456D01*
X30464756Y-30384474D01*
X30449860Y-30407524D01*
X30438994Y-30444431D01*
X30432066Y-30497423D01*
X30429348Y-30557452D01*
X30431108Y-30615470D01*
X30437618Y-30662427D01*
X30441820Y-30676637D01*
X30466737Y-30708674D01*
X30510933Y-30732288D01*
X30569018Y-30745092D01*
X30600243Y-30746700D01*
X30657800Y-30746700D01*
X30657800Y-30604726D01*
X30656008Y-30521611D01*
X30649923Y-30459736D01*
X30638482Y-30415146D01*
X30620622Y-30383889D01*
X30595280Y-30362009D01*
X30592025Y-30360026D01*
X30546994Y-30346561D01*
X30546994Y-30138657D01*
X30622431Y-30149468D01*
X30697090Y-30182151D01*
X30744761Y-30217960D01*
X30774338Y-30248234D01*
X30796362Y-30280660D01*
X30812022Y-30319646D01*
X30822506Y-30369598D01*
X30829002Y-30434925D01*
X30832697Y-30520035D01*
X30833363Y-30546675D01*
X30837832Y-30746700D01*
X30905858Y-30746700D01*
X30965521Y-30740041D01*
X31007524Y-30718037D01*
X31035362Y-30677645D01*
X31051832Y-30619700D01*
X31059060Y-30534346D01*
X31048279Y-30458926D01*
X31020176Y-30397907D01*
X31017014Y-30393532D01*
X30985575Y-30351514D01*
X31018368Y-30304632D01*
X31047146Y-30264921D01*
X31076592Y-30226358D01*
X31081947Y-30219650D01*
X31112731Y-30181550D01*
X31163371Y-30234698D01*
X31204458Y-30286537D01*
X31232946Y-30344896D01*
X31250331Y-30414813D01*
X31258108Y-30501322D01*
X31258842Y-30556200D01*
X31257055Y-30627322D01*
G36*
X31258823Y-31684516D02*
X31237080Y-31769872D01*
X31224585Y-31797625D01*
X31205428Y-31833236D01*
X31190315Y-31857428D01*
X31183722Y-31864300D01*
X31171210Y-31856783D01*
X31145165Y-31837205D01*
X31110993Y-31810022D01*
X31074098Y-31779693D01*
X31039886Y-31750674D01*
X31013763Y-31727422D01*
X31001133Y-31714395D01*
X31000700Y-31713376D01*
X31005767Y-31699302D01*
X31018639Y-31670496D01*
X31027221Y-31652435D01*
X31046103Y-31587460D01*
X31041010Y-31524618D01*
X31013295Y-31467933D01*
X30964313Y-31421425D01*
X30945604Y-31410021D01*
X30930379Y-31403257D01*
X30910174Y-31397901D01*
X30881869Y-31393736D01*
X30842342Y-31390551D01*
X30788470Y-31388129D01*
X30717133Y-31386257D01*
X30625208Y-31384721D01*
X30565725Y-31383953D01*
X30226000Y-31379856D01*
X30226000Y-31281295D01*
X30227023Y-31233471D01*
X30229729Y-31195998D01*
X30233580Y-31175693D01*
X30234467Y-31174266D01*
X30248617Y-31172413D01*
X30285411Y-31170699D01*
X30342097Y-31169171D01*
X30415920Y-31167874D01*
X30504124Y-31166853D01*
X30603956Y-31166154D01*
X30712662Y-31165821D01*
X30748817Y-31165800D01*
X31254700Y-31165800D01*
X31254700Y-31381700D01*
X31153268Y-31381700D01*
X31197113Y-31439140D01*
X31238388Y-31513260D01*
X31259108Y-31597016D01*
X31258823Y-31684516D01*
X31258823Y-31684516D01*
G37*
X31258823Y-31684516D02*
X31237080Y-31769872D01*
X31224585Y-31797625D01*
X31205428Y-31833236D01*
X31190315Y-31857428D01*
X31183722Y-31864300D01*
X31171210Y-31856783D01*
X31145165Y-31837205D01*
X31110993Y-31810022D01*
X31074098Y-31779693D01*
X31039886Y-31750674D01*
X31013763Y-31727422D01*
X31001133Y-31714395D01*
X31000700Y-31713376D01*
X31005767Y-31699302D01*
X31018639Y-31670496D01*
X31027221Y-31652435D01*
X31046103Y-31587460D01*
X31041010Y-31524618D01*
X31013295Y-31467933D01*
X30964313Y-31421425D01*
X30945604Y-31410021D01*
X30930379Y-31403257D01*
X30910174Y-31397901D01*
X30881869Y-31393736D01*
X30842342Y-31390551D01*
X30788470Y-31388129D01*
X30717133Y-31386257D01*
X30625208Y-31384721D01*
X30565725Y-31383953D01*
X30226000Y-31379856D01*
X30226000Y-31281295D01*
X30227023Y-31233471D01*
X30229729Y-31195998D01*
X30233580Y-31175693D01*
X30234467Y-31174266D01*
X30248617Y-31172413D01*
X30285411Y-31170699D01*
X30342097Y-31169171D01*
X30415920Y-31167874D01*
X30504124Y-31166853D01*
X30603956Y-31166154D01*
X30712662Y-31165821D01*
X30748817Y-31165800D01*
X31254700Y-31165800D01*
X31254700Y-31381700D01*
X31153268Y-31381700D01*
X31197113Y-31439140D01*
X31238388Y-31513260D01*
X31259108Y-31597016D01*
X31258823Y-31684516D01*
G36*
X30226000Y-32677100D02*
X30226000Y-32461200D01*
X30332028Y-32461200D01*
X30305203Y-32432625D01*
X30262830Y-32370302D01*
X30235932Y-32294063D01*
X30225323Y-32210730D01*
X30231817Y-32127128D01*
X30256228Y-32050083D01*
X30258896Y-32044573D01*
X30308886Y-31970538D01*
X30374825Y-31914980D01*
X30441498Y-31884050D01*
X30501775Y-31870168D01*
X30578305Y-31860851D01*
X30665528Y-31855953D01*
X30718405Y-31855599D01*
X30718405Y-32071734D01*
X30644428Y-32077270D01*
X30564995Y-32092364D01*
X30507634Y-32115899D01*
X30469756Y-32150237D01*
X30448771Y-32197739D01*
X30442092Y-32260767D01*
X30442088Y-32261805D01*
X30445885Y-32306839D01*
X30455642Y-32347324D01*
X30460301Y-32358344D01*
X30485609Y-32393706D01*
X30522230Y-32419285D01*
X30574866Y-32437416D01*
X30644943Y-32449995D01*
X30717828Y-32455781D01*
X30793239Y-32454920D01*
X30864404Y-32448085D01*
X30924550Y-32435951D01*
X30966906Y-32419194D01*
X30969300Y-32417688D01*
X31013841Y-32375892D01*
X31038276Y-32320813D01*
X31044243Y-32264350D01*
X31035196Y-32196513D01*
X31007139Y-32144154D01*
X30969132Y-32110900D01*
X30927363Y-32093192D01*
X30867203Y-32080301D01*
X30795327Y-32072918D01*
X30718405Y-32071734D01*
X30718405Y-31855599D01*
X30757887Y-31855333D01*
X30849823Y-31858845D01*
X30935779Y-31866348D01*
X31010196Y-31877696D01*
X31067515Y-31892747D01*
X31086263Y-31900697D01*
X31157536Y-31950656D01*
X31211036Y-32017463D01*
X31245156Y-32098371D01*
X31258286Y-32190636D01*
X31258352Y-32194500D01*
X31250104Y-32277348D01*
X31225213Y-32355227D01*
X31186514Y-32419978D01*
X31175666Y-32432466D01*
X31148673Y-32461200D01*
X31661100Y-32461200D01*
X31661100Y-32677100D01*
X30226000Y-32677100D01*
X30226000Y-32677100D01*
G37*
X30226000Y-32677100D02*
X30226000Y-32461200D01*
X30332028Y-32461200D01*
X30305203Y-32432625D01*
X30262830Y-32370302D01*
X30235932Y-32294063D01*
X30225323Y-32210730D01*
X30231817Y-32127128D01*
X30256228Y-32050083D01*
X30258896Y-32044573D01*
X30308886Y-31970538D01*
X30374825Y-31914980D01*
X30441498Y-31884050D01*
X30501775Y-31870168D01*
X30578305Y-31860851D01*
X30665528Y-31855953D01*
X30718405Y-31855599D01*
X30718405Y-32071734D01*
X30644428Y-32077270D01*
X30564995Y-32092364D01*
X30507634Y-32115899D01*
X30469756Y-32150237D01*
X30448771Y-32197739D01*
X30442092Y-32260767D01*
X30442088Y-32261805D01*
X30445885Y-32306839D01*
X30455642Y-32347324D01*
X30460301Y-32358344D01*
X30485609Y-32393706D01*
X30522230Y-32419285D01*
X30574866Y-32437416D01*
X30644943Y-32449995D01*
X30717828Y-32455781D01*
X30793239Y-32454920D01*
X30864404Y-32448085D01*
X30924550Y-32435951D01*
X30966906Y-32419194D01*
X30969300Y-32417688D01*
X31013841Y-32375892D01*
X31038276Y-32320813D01*
X31044243Y-32264350D01*
X31035196Y-32196513D01*
X31007139Y-32144154D01*
X30969132Y-32110900D01*
X30927363Y-32093192D01*
X30867203Y-32080301D01*
X30795327Y-32072918D01*
X30718405Y-32071734D01*
X30718405Y-31855599D01*
X30757887Y-31855333D01*
X30849823Y-31858845D01*
X30935779Y-31866348D01*
X31010196Y-31877696D01*
X31067515Y-31892747D01*
X31086263Y-31900697D01*
X31157536Y-31950656D01*
X31211036Y-32017463D01*
X31245156Y-32098371D01*
X31258286Y-32190636D01*
X31258352Y-32194500D01*
X31250104Y-32277348D01*
X31225213Y-32355227D01*
X31186514Y-32419978D01*
X31175666Y-32432466D01*
X31148673Y-32461200D01*
X31661100Y-32461200D01*
X31661100Y-32677100D01*
X30226000Y-32677100D01*
G36*
X31190507Y-33011507D02*
X31159158Y-33020434D01*
X31107955Y-33034710D01*
X31041563Y-33053047D01*
X30964645Y-33074159D01*
X30881867Y-33096760D01*
X30853957Y-33104353D01*
X30775162Y-33126074D01*
X30705310Y-33145912D01*
X30647888Y-33162828D01*
X30606385Y-33175784D01*
X30584289Y-33183740D01*
X30581600Y-33185464D01*
X30593187Y-33191057D01*
X30625889Y-33203294D01*
X30676620Y-33221114D01*
X30742294Y-33243451D01*
X30819823Y-33269244D01*
X30906120Y-33297429D01*
X30914975Y-33300294D01*
X31248350Y-33408042D01*
X31248350Y-33570007D01*
X30908791Y-33678766D01*
X30821837Y-33707075D01*
X30744208Y-33733235D01*
X30678787Y-33756202D01*
X30628454Y-33774932D01*
X30596090Y-33788383D01*
X30584576Y-33795510D01*
X30584941Y-33796041D01*
X30601047Y-33801544D01*
X30638249Y-33812621D01*
X30693100Y-33828298D01*
X30762154Y-33847601D01*
X30841965Y-33869555D01*
X30918150Y-33890238D01*
X31004201Y-33913693D01*
X31082170Y-33935390D01*
X31148690Y-33954356D01*
X31200390Y-33969618D01*
X31233904Y-33980201D01*
X31245699Y-33984893D01*
X31249864Y-34000899D01*
X31252261Y-34035792D01*
X31252539Y-34083097D01*
X31252049Y-34102014D01*
X31248350Y-34210160D01*
X30740350Y-34048141D01*
X30232350Y-33886121D01*
X30228674Y-33791449D01*
X30224998Y-33696776D01*
X30558874Y-33598073D01*
X30646800Y-33571893D01*
X30726694Y-33547747D01*
X30795327Y-33526642D01*
X30849469Y-33509580D01*
X30885890Y-33497568D01*
X30901362Y-33491608D01*
X30901561Y-33491459D01*
X30892216Y-33485968D01*
X30861456Y-33474376D01*
X30812259Y-33457663D01*
X30747603Y-33436807D01*
X30670466Y-33412786D01*
X30583828Y-33386579D01*
X30568277Y-33381950D01*
X30226182Y-33280350D01*
X30226091Y-33189024D01*
X30227277Y-33143540D01*
X30230485Y-33109054D01*
X30235048Y-33092438D01*
X30235525Y-33092040D01*
X30249329Y-33087077D01*
X30284728Y-33075287D01*
X30339107Y-33057515D01*
X30409847Y-33034610D01*
X30494332Y-33007416D01*
X30589944Y-32976780D01*
X30694067Y-32943548D01*
X30734000Y-32930836D01*
X30840887Y-32896810D01*
X30940486Y-32865060D01*
X31030136Y-32836438D01*
X31107175Y-32811794D01*
X31168943Y-32791982D01*
X31212778Y-32777851D01*
X31236019Y-32770255D01*
X31238825Y-32769286D01*
X31246741Y-32772838D01*
X31251705Y-32792859D01*
X31254186Y-32832564D01*
X31254700Y-32877985D01*
X31254700Y-32992689D01*
X31190507Y-33011507D01*
X31190507Y-33011507D01*
G37*
X31190507Y-33011507D02*
X31159158Y-33020434D01*
X31107955Y-33034710D01*
X31041563Y-33053047D01*
X30964645Y-33074159D01*
X30881867Y-33096760D01*
X30853957Y-33104353D01*
X30775162Y-33126074D01*
X30705310Y-33145912D01*
X30647888Y-33162828D01*
X30606385Y-33175784D01*
X30584289Y-33183740D01*
X30581600Y-33185464D01*
X30593187Y-33191057D01*
X30625889Y-33203294D01*
X30676620Y-33221114D01*
X30742294Y-33243451D01*
X30819823Y-33269244D01*
X30906120Y-33297429D01*
X30914975Y-33300294D01*
X31248350Y-33408042D01*
X31248350Y-33570007D01*
X30908791Y-33678766D01*
X30821837Y-33707075D01*
X30744208Y-33733235D01*
X30678787Y-33756202D01*
X30628454Y-33774932D01*
X30596090Y-33788383D01*
X30584576Y-33795510D01*
X30584941Y-33796041D01*
X30601047Y-33801544D01*
X30638249Y-33812621D01*
X30693100Y-33828298D01*
X30762154Y-33847601D01*
X30841965Y-33869555D01*
X30918150Y-33890238D01*
X31004201Y-33913693D01*
X31082170Y-33935390D01*
X31148690Y-33954356D01*
X31200390Y-33969618D01*
X31233904Y-33980201D01*
X31245699Y-33984893D01*
X31249864Y-34000899D01*
X31252261Y-34035792D01*
X31252539Y-34083097D01*
X31252049Y-34102014D01*
X31248350Y-34210160D01*
X30740350Y-34048141D01*
X30232350Y-33886121D01*
X30228674Y-33791449D01*
X30224998Y-33696776D01*
X30558874Y-33598073D01*
X30646800Y-33571893D01*
X30726694Y-33547747D01*
X30795327Y-33526642D01*
X30849469Y-33509580D01*
X30885890Y-33497568D01*
X30901362Y-33491608D01*
X30901561Y-33491459D01*
X30892216Y-33485968D01*
X30861456Y-33474376D01*
X30812259Y-33457663D01*
X30747603Y-33436807D01*
X30670466Y-33412786D01*
X30583828Y-33386579D01*
X30568277Y-33381950D01*
X30226182Y-33280350D01*
X30226091Y-33189024D01*
X30227277Y-33143540D01*
X30230485Y-33109054D01*
X30235048Y-33092438D01*
X30235525Y-33092040D01*
X30249329Y-33087077D01*
X30284728Y-33075287D01*
X30339107Y-33057515D01*
X30409847Y-33034610D01*
X30494332Y-33007416D01*
X30589944Y-32976780D01*
X30694067Y-32943548D01*
X30734000Y-32930836D01*
X30840887Y-32896810D01*
X30940486Y-32865060D01*
X31030136Y-32836438D01*
X31107175Y-32811794D01*
X31168943Y-32791982D01*
X31212778Y-32777851D01*
X31236019Y-32770255D01*
X31238825Y-32769286D01*
X31246741Y-32772838D01*
X31251705Y-32792859D01*
X31254186Y-32832564D01*
X31254700Y-32877985D01*
X31254700Y-32992689D01*
X31190507Y-33011507D01*
G36*
X31252611Y-34741602D02*
X31239011Y-34809687D01*
X31238608Y-34811040D01*
X31206338Y-34884154D01*
X31158607Y-34947575D01*
X31100751Y-34994893D01*
X31074016Y-35008724D01*
X31056095Y-35015360D01*
X31034663Y-35020711D01*
X31006742Y-35024962D01*
X30969356Y-35028298D01*
X30919528Y-35030902D01*
X30854281Y-35032961D01*
X30770639Y-35034658D01*
X30665625Y-35036179D01*
X30622875Y-35036708D01*
X30226000Y-35041477D01*
X30226000Y-34823400D01*
X30273625Y-34823013D01*
X30302512Y-34821725D01*
X30309067Y-34817355D01*
X30297820Y-34809008D01*
X30278299Y-34789393D01*
X30257244Y-34756405D01*
X30250474Y-34742719D01*
X30235975Y-34692819D01*
X30228045Y-34627223D01*
X30226779Y-34554791D01*
X30232270Y-34484389D01*
X30244612Y-34424878D01*
X30247028Y-34417529D01*
X30286609Y-34339461D01*
X30342935Y-34278806D01*
X30412961Y-34237053D01*
X30493643Y-34215692D01*
X30562882Y-34216099D01*
X30562882Y-34420224D01*
X30519053Y-34420890D01*
X30478296Y-34442552D01*
X30454254Y-34471315D01*
X30439789Y-34510533D01*
X30431004Y-34565774D01*
X30428080Y-34628265D01*
X30431200Y-34689230D01*
X30440544Y-34739896D01*
X30448271Y-34759939D01*
X30479342Y-34793090D01*
X30530788Y-34814524D01*
X30599934Y-34823194D01*
X30610175Y-34823329D01*
X30657800Y-34823400D01*
X30657781Y-34674175D01*
X30656843Y-34602572D01*
X30653638Y-34550891D01*
X30647543Y-34513710D01*
X30637934Y-34485605D01*
X30635556Y-34480636D01*
X30603732Y-34440243D01*
X30562882Y-34420224D01*
X30562882Y-34216099D01*
X30581935Y-34216212D01*
X30635923Y-34227263D01*
X30693482Y-34254317D01*
X30748405Y-34299834D01*
X30793255Y-34357334D01*
X30801245Y-34371347D01*
X30811966Y-34394115D01*
X30819751Y-34418985D01*
X30825204Y-34450717D01*
X30828928Y-34494077D01*
X30831527Y-34553825D01*
X30833388Y-34624818D01*
X30837884Y-34826287D01*
X30913435Y-34820822D01*
X30971010Y-34812052D01*
X31009568Y-34792567D01*
X31034326Y-34757675D01*
X31050495Y-34702682D01*
X31051762Y-34696302D01*
X31059684Y-34617692D01*
X31052958Y-34546660D01*
X31032443Y-34489097D01*
X31018486Y-34468613D01*
X30998577Y-34442838D01*
X30988359Y-34425477D01*
X30988000Y-34423727D01*
X30995396Y-34408822D01*
X31014378Y-34381350D01*
X31040142Y-34347368D01*
X31067881Y-34312932D01*
X31092791Y-34284099D01*
X31110065Y-34266924D01*
X31114265Y-34264600D01*
X31133455Y-34274979D01*
X31159406Y-34302062D01*
X31187661Y-34339765D01*
X31213762Y-34382004D01*
X31233249Y-34422694D01*
X31236311Y-34431146D01*
X31250877Y-34495640D01*
X31258487Y-34575160D01*
X31259083Y-34660287D01*
X31252611Y-34741602D01*
X31252611Y-34741602D01*
G37*
X31252611Y-34741602D02*
X31239011Y-34809687D01*
X31238608Y-34811040D01*
X31206338Y-34884154D01*
X31158607Y-34947575D01*
X31100751Y-34994893D01*
X31074016Y-35008724D01*
X31056095Y-35015360D01*
X31034663Y-35020711D01*
X31006742Y-35024962D01*
X30969356Y-35028298D01*
X30919528Y-35030902D01*
X30854281Y-35032961D01*
X30770639Y-35034658D01*
X30665625Y-35036179D01*
X30622875Y-35036708D01*
X30226000Y-35041477D01*
X30226000Y-34823400D01*
X30273625Y-34823013D01*
X30302512Y-34821725D01*
X30309067Y-34817355D01*
X30297820Y-34809008D01*
X30278299Y-34789393D01*
X30257244Y-34756405D01*
X30250474Y-34742719D01*
X30235975Y-34692819D01*
X30228045Y-34627223D01*
X30226779Y-34554791D01*
X30232270Y-34484389D01*
X30244612Y-34424878D01*
X30247028Y-34417529D01*
X30286609Y-34339461D01*
X30342935Y-34278806D01*
X30412961Y-34237053D01*
X30493643Y-34215692D01*
X30562882Y-34216099D01*
X30562882Y-34420224D01*
X30519053Y-34420890D01*
X30478296Y-34442552D01*
X30454254Y-34471315D01*
X30439789Y-34510533D01*
X30431004Y-34565774D01*
X30428080Y-34628265D01*
X30431200Y-34689230D01*
X30440544Y-34739896D01*
X30448271Y-34759939D01*
X30479342Y-34793090D01*
X30530788Y-34814524D01*
X30599934Y-34823194D01*
X30610175Y-34823329D01*
X30657800Y-34823400D01*
X30657781Y-34674175D01*
X30656843Y-34602572D01*
X30653638Y-34550891D01*
X30647543Y-34513710D01*
X30637934Y-34485605D01*
X30635556Y-34480636D01*
X30603732Y-34440243D01*
X30562882Y-34420224D01*
X30562882Y-34216099D01*
X30581935Y-34216212D01*
X30635923Y-34227263D01*
X30693482Y-34254317D01*
X30748405Y-34299834D01*
X30793255Y-34357334D01*
X30801245Y-34371347D01*
X30811966Y-34394115D01*
X30819751Y-34418985D01*
X30825204Y-34450717D01*
X30828928Y-34494077D01*
X30831527Y-34553825D01*
X30833388Y-34624818D01*
X30837884Y-34826287D01*
X30913435Y-34820822D01*
X30971010Y-34812052D01*
X31009568Y-34792567D01*
X31034326Y-34757675D01*
X31050495Y-34702682D01*
X31051762Y-34696302D01*
X31059684Y-34617692D01*
X31052958Y-34546660D01*
X31032443Y-34489097D01*
X31018486Y-34468613D01*
X30998577Y-34442838D01*
X30988359Y-34425477D01*
X30988000Y-34423727D01*
X30995396Y-34408822D01*
X31014378Y-34381350D01*
X31040142Y-34347368D01*
X31067881Y-34312932D01*
X31092791Y-34284099D01*
X31110065Y-34266924D01*
X31114265Y-34264600D01*
X31133455Y-34274979D01*
X31159406Y-34302062D01*
X31187661Y-34339765D01*
X31213762Y-34382004D01*
X31233249Y-34422694D01*
X31236311Y-34431146D01*
X31250877Y-34495640D01*
X31258487Y-34575160D01*
X31259083Y-34660287D01*
X31252611Y-34741602D01*
G36*
X31242449Y-35828303D02*
X31212095Y-35894791D01*
X31182764Y-35943390D01*
X31094907Y-35869980D01*
X31055452Y-35837056D01*
X31023881Y-35810793D01*
X31004895Y-35795099D01*
X31001669Y-35792495D01*
X31003759Y-35779909D01*
X31014961Y-35752097D01*
X31025367Y-35730195D01*
X31046486Y-35664555D01*
X31042564Y-35602804D01*
X31013723Y-35545375D01*
X30960087Y-35492703D01*
X30957739Y-35490934D01*
X30946051Y-35483142D01*
X30932217Y-35477011D01*
X30913145Y-35472297D01*
X30885740Y-35468757D01*
X30846910Y-35466149D01*
X30793562Y-35464230D01*
X30722601Y-35462757D01*
X30630936Y-35461486D01*
X30574349Y-35460828D01*
X30226000Y-35456907D01*
X30226000Y-35242500D01*
X31254700Y-35242500D01*
X31254700Y-35458400D01*
X31148348Y-35458400D01*
X31180923Y-35493325D01*
X31213836Y-35533827D01*
X31235588Y-35576166D01*
X31250960Y-35630528D01*
X31255222Y-35651652D01*
X31259942Y-35740305D01*
X31242449Y-35828303D01*
X31242449Y-35828303D01*
G37*
X31242449Y-35828303D02*
X31212095Y-35894791D01*
X31182764Y-35943390D01*
X31094907Y-35869980D01*
X31055452Y-35837056D01*
X31023881Y-35810793D01*
X31004895Y-35795099D01*
X31001669Y-35792495D01*
X31003759Y-35779909D01*
X31014961Y-35752097D01*
X31025367Y-35730195D01*
X31046486Y-35664555D01*
X31042564Y-35602804D01*
X31013723Y-35545375D01*
X30960087Y-35492703D01*
X30957739Y-35490934D01*
X30946051Y-35483142D01*
X30932217Y-35477011D01*
X30913145Y-35472297D01*
X30885740Y-35468757D01*
X30846910Y-35466149D01*
X30793562Y-35464230D01*
X30722601Y-35462757D01*
X30630936Y-35461486D01*
X30574349Y-35460828D01*
X30226000Y-35456907D01*
X30226000Y-35242500D01*
X31254700Y-35242500D01*
X31254700Y-35458400D01*
X31148348Y-35458400D01*
X31180923Y-35493325D01*
X31213836Y-35533827D01*
X31235588Y-35576166D01*
X31250960Y-35630528D01*
X31255222Y-35651652D01*
X31259942Y-35740305D01*
X31242449Y-35828303D01*
G36*
X31251708Y-36445955D02*
X31222060Y-36535695D01*
X31191266Y-36590966D01*
X31132707Y-36660403D01*
X31060141Y-36711803D01*
X30971831Y-36745928D01*
X30866044Y-36763540D01*
X30791014Y-36766500D01*
X30657800Y-36766500D01*
X30657800Y-36141373D01*
X30610175Y-36150202D01*
X30538366Y-36174784D01*
X30483443Y-36217695D01*
X30446927Y-36277038D01*
X30430342Y-36350914D01*
X30429479Y-36375469D01*
X30436143Y-36435310D01*
X30453509Y-36493364D01*
X30478358Y-36540758D01*
X30497038Y-36561680D01*
X30511237Y-36575660D01*
X30516391Y-36590180D01*
X30510745Y-36609129D01*
X30492543Y-36636398D01*
X30460031Y-36675879D01*
X30429897Y-36710496D01*
X30389256Y-36756784D01*
X30351370Y-36720488D01*
X30326098Y-36690058D01*
X30297266Y-36646195D01*
X30272918Y-36601873D01*
X30253716Y-36560451D01*
X30241494Y-36525001D01*
X30234511Y-36487070D01*
X30231025Y-36438203D01*
X30229717Y-36392202D01*
X30229586Y-36334316D01*
X30231391Y-36283001D01*
X30234782Y-36245552D01*
X30237327Y-36233100D01*
X30280525Y-36139584D01*
X30344443Y-36059427D01*
X30420564Y-35999562D01*
X30494795Y-35965698D01*
X30585683Y-35943449D01*
X30687244Y-35932915D01*
X30793495Y-35934197D01*
X30835600Y-35939492D01*
X30835600Y-36141373D01*
X30835600Y-36550600D01*
X30864660Y-36550600D01*
X30915977Y-36539774D01*
X30968368Y-36511062D01*
X31013349Y-36470113D01*
X31036344Y-36436300D01*
X31057389Y-36370728D01*
X31055303Y-36306727D01*
X31032235Y-36248317D01*
X30990338Y-36199514D01*
X30931761Y-36164339D01*
X30883225Y-36150202D01*
X30835600Y-36141373D01*
X30835600Y-35939492D01*
X30898450Y-35947398D01*
X30996127Y-35972619D01*
X31038800Y-35989081D01*
X31115802Y-36035753D01*
X31177532Y-36099485D01*
X31222989Y-36176324D01*
X31251171Y-36262317D01*
X31261078Y-36353512D01*
X31251708Y-36445955D01*
X31251708Y-36445955D01*
G37*
X31251708Y-36445955D02*
X31222060Y-36535695D01*
X31191266Y-36590966D01*
X31132707Y-36660403D01*
X31060141Y-36711803D01*
X30971831Y-36745928D01*
X30866044Y-36763540D01*
X30791014Y-36766500D01*
X30657800Y-36766500D01*
X30657800Y-36141373D01*
X30610175Y-36150202D01*
X30538366Y-36174784D01*
X30483443Y-36217695D01*
X30446927Y-36277038D01*
X30430342Y-36350914D01*
X30429479Y-36375469D01*
X30436143Y-36435310D01*
X30453509Y-36493364D01*
X30478358Y-36540758D01*
X30497038Y-36561680D01*
X30511237Y-36575660D01*
X30516391Y-36590180D01*
X30510745Y-36609129D01*
X30492543Y-36636398D01*
X30460031Y-36675879D01*
X30429897Y-36710496D01*
X30389256Y-36756784D01*
X30351370Y-36720488D01*
X30326098Y-36690058D01*
X30297266Y-36646195D01*
X30272918Y-36601873D01*
X30253716Y-36560451D01*
X30241494Y-36525001D01*
X30234511Y-36487070D01*
X30231025Y-36438203D01*
X30229717Y-36392202D01*
X30229586Y-36334316D01*
X30231391Y-36283001D01*
X30234782Y-36245552D01*
X30237327Y-36233100D01*
X30280525Y-36139584D01*
X30344443Y-36059427D01*
X30420564Y-35999562D01*
X30494795Y-35965698D01*
X30585683Y-35943449D01*
X30687244Y-35932915D01*
X30793495Y-35934197D01*
X30835600Y-35939492D01*
X30835600Y-36141373D01*
X30835600Y-36550600D01*
X30864660Y-36550600D01*
X30915977Y-36539774D01*
X30968368Y-36511062D01*
X31013349Y-36470113D01*
X31036344Y-36436300D01*
X31057389Y-36370728D01*
X31055303Y-36306727D01*
X31032235Y-36248317D01*
X30990338Y-36199514D01*
X30931761Y-36164339D01*
X30883225Y-36150202D01*
X30835600Y-36141373D01*
X30835600Y-35939492D01*
X30898450Y-35947398D01*
X30996127Y-35972619D01*
X31038800Y-35989081D01*
X31115802Y-36035753D01*
X31177532Y-36099485D01*
X31222989Y-36176324D01*
X31251171Y-36262317D01*
X31261078Y-36353512D01*
X31251708Y-36445955D01*
G36*
X32847634Y-28684616D02*
X32821681Y-28779370D01*
X32776053Y-28862287D01*
X32712575Y-28930698D01*
X32633073Y-28981936D01*
X32559210Y-29008757D01*
X32509290Y-29017175D01*
X32441637Y-29022655D01*
X32363747Y-29025197D01*
X32283118Y-29024802D01*
X32207245Y-29021469D01*
X32143625Y-29015199D01*
X32109191Y-29008757D01*
X32019780Y-28973589D01*
X31944322Y-28919329D01*
X31884487Y-28849114D01*
X31841946Y-28766084D01*
X31818367Y-28673380D01*
X31815423Y-28574140D01*
X31830798Y-28485472D01*
X31867849Y-28395503D01*
X31926058Y-28317730D01*
X32002966Y-28254997D01*
X32054155Y-28227091D01*
X32077724Y-28217260D01*
X32102437Y-28210158D01*
X32132835Y-28205353D01*
X32173461Y-28202410D01*
X32228854Y-28200895D01*
X32303557Y-28200376D01*
X32332607Y-28200352D01*
X32332607Y-28408376D01*
X32267113Y-28409071D01*
X32220302Y-28411818D01*
X32185477Y-28417603D01*
X32155944Y-28427415D01*
X32133830Y-28437712D01*
X32078388Y-28476119D01*
X32044958Y-28525605D01*
X32032181Y-28588665D01*
X32032883Y-28623151D01*
X32042654Y-28678557D01*
X32061044Y-28721159D01*
X32063567Y-28724751D01*
X32092127Y-28757942D01*
X32123621Y-28781472D01*
X32162932Y-28796878D01*
X32214943Y-28805699D01*
X32284537Y-28809470D01*
X32334200Y-28809950D01*
X32406378Y-28809204D01*
X32458277Y-28806593D01*
X32494984Y-28801554D01*
X32521587Y-28793521D01*
X32533224Y-28787916D01*
X32587051Y-28745169D01*
X32621687Y-28688846D01*
X32635741Y-28623492D01*
X32627820Y-28553654D01*
X32615533Y-28519259D01*
X32591608Y-28477504D01*
X32559696Y-28447080D01*
X32516006Y-28426502D01*
X32456747Y-28414283D01*
X32378125Y-28408937D01*
X32332607Y-28408376D01*
X32332607Y-28200352D01*
X32334200Y-28200350D01*
X32416386Y-28200621D01*
X32477733Y-28201729D01*
X32522798Y-28204114D01*
X32556140Y-28208216D01*
X32582317Y-28214475D01*
X32605886Y-28223333D01*
X32615155Y-28227494D01*
X32701883Y-28280733D01*
X32770283Y-28350873D01*
X32819040Y-28435952D01*
X32846838Y-28534008D01*
X32852086Y-28580692D01*
X32847634Y-28684616D01*
X32847634Y-28684616D01*
G37*
X32847634Y-28684616D02*
X32821681Y-28779370D01*
X32776053Y-28862287D01*
X32712575Y-28930698D01*
X32633073Y-28981936D01*
X32559210Y-29008757D01*
X32509290Y-29017175D01*
X32441637Y-29022655D01*
X32363747Y-29025197D01*
X32283118Y-29024802D01*
X32207245Y-29021469D01*
X32143625Y-29015199D01*
X32109191Y-29008757D01*
X32019780Y-28973589D01*
X31944322Y-28919329D01*
X31884487Y-28849114D01*
X31841946Y-28766084D01*
X31818367Y-28673380D01*
X31815423Y-28574140D01*
X31830798Y-28485472D01*
X31867849Y-28395503D01*
X31926058Y-28317730D01*
X32002966Y-28254997D01*
X32054155Y-28227091D01*
X32077724Y-28217260D01*
X32102437Y-28210158D01*
X32132835Y-28205353D01*
X32173461Y-28202410D01*
X32228854Y-28200895D01*
X32303557Y-28200376D01*
X32332607Y-28200352D01*
X32332607Y-28408376D01*
X32267113Y-28409071D01*
X32220302Y-28411818D01*
X32185477Y-28417603D01*
X32155944Y-28427415D01*
X32133830Y-28437712D01*
X32078388Y-28476119D01*
X32044958Y-28525605D01*
X32032181Y-28588665D01*
X32032883Y-28623151D01*
X32042654Y-28678557D01*
X32061044Y-28721159D01*
X32063567Y-28724751D01*
X32092127Y-28757942D01*
X32123621Y-28781472D01*
X32162932Y-28796878D01*
X32214943Y-28805699D01*
X32284537Y-28809470D01*
X32334200Y-28809950D01*
X32406378Y-28809204D01*
X32458277Y-28806593D01*
X32494984Y-28801554D01*
X32521587Y-28793521D01*
X32533224Y-28787916D01*
X32587051Y-28745169D01*
X32621687Y-28688846D01*
X32635741Y-28623492D01*
X32627820Y-28553654D01*
X32615533Y-28519259D01*
X32591608Y-28477504D01*
X32559696Y-28447080D01*
X32516006Y-28426502D01*
X32456747Y-28414283D01*
X32378125Y-28408937D01*
X32332607Y-28408376D01*
X32332607Y-28200352D01*
X32334200Y-28200350D01*
X32416386Y-28200621D01*
X32477733Y-28201729D01*
X32522798Y-28204114D01*
X32556140Y-28208216D01*
X32582317Y-28214475D01*
X32605886Y-28223333D01*
X32615155Y-28227494D01*
X32701883Y-28280733D01*
X32770283Y-28350873D01*
X32819040Y-28435952D01*
X32846838Y-28534008D01*
X32852086Y-28580692D01*
X32847634Y-28684616D01*
G36*
X32852096Y-30603908D02*
X32830100Y-30696985D01*
X32787833Y-30782712D01*
X32726884Y-30857221D01*
X32648842Y-30916645D01*
X32613600Y-30935135D01*
X32578017Y-30949988D01*
X32542485Y-30960099D01*
X32500081Y-30966666D01*
X32443886Y-30970885D01*
X32394525Y-30973014D01*
X32245300Y-30978430D01*
X32245300Y-30353000D01*
X32216241Y-30353000D01*
X32187788Y-30358669D01*
X32149222Y-30373014D01*
X32131072Y-30381575D01*
X32075494Y-30422833D01*
X32038237Y-30478170D01*
X32019768Y-30543595D01*
X32020556Y-30615120D01*
X32041069Y-30688755D01*
X32081776Y-30760510D01*
X32085956Y-30766099D01*
X32116325Y-30805915D01*
X32048726Y-30881082D01*
X31981127Y-30956250D01*
X31941056Y-30918270D01*
X31914138Y-30886412D01*
X31884393Y-30841716D01*
X31862018Y-30801138D01*
X31841371Y-30754919D01*
X31828773Y-30712782D01*
X31821879Y-30664400D01*
X31818748Y-30610517D01*
X31818147Y-30553056D01*
X31820366Y-30499264D01*
X31824938Y-30458655D01*
X31826560Y-30451012D01*
X31852240Y-30378569D01*
X31893107Y-30312652D01*
X31924478Y-30275121D01*
X31992785Y-30216557D01*
X32077645Y-30174382D01*
X32180270Y-30148182D01*
X32301878Y-30137546D01*
X32329805Y-30137250D01*
X32435800Y-30144343D01*
X32435800Y-30349676D01*
X32435800Y-30554538D01*
X32436003Y-30631127D01*
X32436876Y-30685921D01*
X32438819Y-30722523D01*
X32442232Y-30744535D01*
X32447514Y-30755560D01*
X32455065Y-30759202D01*
X32458510Y-30759400D01*
X32492473Y-30751471D01*
X32535500Y-30731240D01*
X32578376Y-30704040D01*
X32611886Y-30675206D01*
X32619207Y-30666393D01*
X32638669Y-30622331D01*
X32646498Y-30566355D01*
X32642696Y-30508769D01*
X32627265Y-30459877D01*
X32619166Y-30446791D01*
X32566603Y-30392904D01*
X32506423Y-30362610D01*
X32483128Y-30357356D01*
X32435800Y-30349676D01*
X32435800Y-30144343D01*
X32461581Y-30146069D01*
X32574766Y-30172183D01*
X32669355Y-30215590D01*
X32745343Y-30276287D01*
X32802726Y-30354272D01*
X32828912Y-30411181D01*
X32852229Y-30507351D01*
X32852096Y-30603908D01*
X32852096Y-30603908D01*
G37*
X32852096Y-30603908D02*
X32830100Y-30696985D01*
X32787833Y-30782712D01*
X32726884Y-30857221D01*
X32648842Y-30916645D01*
X32613600Y-30935135D01*
X32578017Y-30949988D01*
X32542485Y-30960099D01*
X32500081Y-30966666D01*
X32443886Y-30970885D01*
X32394525Y-30973014D01*
X32245300Y-30978430D01*
X32245300Y-30353000D01*
X32216241Y-30353000D01*
X32187788Y-30358669D01*
X32149222Y-30373014D01*
X32131072Y-30381575D01*
X32075494Y-30422833D01*
X32038237Y-30478170D01*
X32019768Y-30543595D01*
X32020556Y-30615120D01*
X32041069Y-30688755D01*
X32081776Y-30760510D01*
X32085956Y-30766099D01*
X32116325Y-30805915D01*
X32048726Y-30881082D01*
X31981127Y-30956250D01*
X31941056Y-30918270D01*
X31914138Y-30886412D01*
X31884393Y-30841716D01*
X31862018Y-30801138D01*
X31841371Y-30754919D01*
X31828773Y-30712782D01*
X31821879Y-30664400D01*
X31818748Y-30610517D01*
X31818147Y-30553056D01*
X31820366Y-30499264D01*
X31824938Y-30458655D01*
X31826560Y-30451012D01*
X31852240Y-30378569D01*
X31893107Y-30312652D01*
X31924478Y-30275121D01*
X31992785Y-30216557D01*
X32077645Y-30174382D01*
X32180270Y-30148182D01*
X32301878Y-30137546D01*
X32329805Y-30137250D01*
X32435800Y-30144343D01*
X32435800Y-30349676D01*
X32435800Y-30554538D01*
X32436003Y-30631127D01*
X32436876Y-30685921D01*
X32438819Y-30722523D01*
X32442232Y-30744535D01*
X32447514Y-30755560D01*
X32455065Y-30759202D01*
X32458510Y-30759400D01*
X32492473Y-30751471D01*
X32535500Y-30731240D01*
X32578376Y-30704040D01*
X32611886Y-30675206D01*
X32619207Y-30666393D01*
X32638669Y-30622331D01*
X32646498Y-30566355D01*
X32642696Y-30508769D01*
X32627265Y-30459877D01*
X32619166Y-30446791D01*
X32566603Y-30392904D01*
X32506423Y-30362610D01*
X32483128Y-30357356D01*
X32435800Y-30349676D01*
X32435800Y-30144343D01*
X32461581Y-30146069D01*
X32574766Y-30172183D01*
X32669355Y-30215590D01*
X32745343Y-30276287D01*
X32802726Y-30354272D01*
X32828912Y-30411181D01*
X32852229Y-30507351D01*
X32852096Y-30603908D01*
G36*
X32849475Y-33016875D02*
X32843548Y-33063980D01*
X32828701Y-33120386D01*
X32805348Y-33184367D01*
X32777435Y-33246686D01*
X32748907Y-33298105D01*
X32735429Y-33317111D01*
X32726210Y-33327662D01*
X32716830Y-33332124D01*
X32703464Y-33328529D01*
X32682288Y-33314910D01*
X32649478Y-33289298D01*
X32601207Y-33249726D01*
X32595833Y-33245297D01*
X32559016Y-33214953D01*
X32599707Y-33132299D01*
X32626077Y-33068136D01*
X32643764Y-33003849D01*
X32647815Y-32977778D01*
X32647984Y-32909162D01*
X32634857Y-32851334D01*
X32610563Y-32807493D01*
X32577236Y-32780841D01*
X32537005Y-32774578D01*
X32515940Y-32779728D01*
X32494420Y-32792008D01*
X32477768Y-32813296D01*
X32464736Y-32847309D01*
X32454077Y-32897765D01*
X32444542Y-32968379D01*
X32440688Y-33003825D01*
X32432694Y-33068417D01*
X32423032Y-33127680D01*
X32412954Y-33174819D01*
X32404200Y-33202041D01*
X32359427Y-33268867D01*
X32298347Y-33318854D01*
X32241550Y-33343787D01*
X32148060Y-33360587D01*
X32062881Y-33353686D01*
X31987403Y-33323712D01*
X31923015Y-33271293D01*
X31871108Y-33197057D01*
X31858136Y-33170536D01*
X31838829Y-33122090D01*
X31827071Y-33075852D01*
X31820754Y-33021471D01*
X31818542Y-32976057D01*
X31818120Y-32916495D01*
X31820379Y-32859272D01*
X31824853Y-32814390D01*
X31826559Y-32804816D01*
X31842486Y-32752147D01*
X31868734Y-32688634D01*
X31900870Y-32623360D01*
X31934464Y-32565404D01*
X31961882Y-32527473D01*
X31997651Y-32485797D01*
X32071832Y-32560760D01*
X32146013Y-32635722D01*
X32099126Y-32700985D01*
X32048581Y-32789984D01*
X32022144Y-32884154D01*
X32017311Y-32955343D01*
X32025219Y-33024071D01*
X32046045Y-33080308D01*
X32077347Y-33120854D01*
X32116679Y-33142505D01*
X32160089Y-33142452D01*
X32182948Y-33133179D01*
X32200410Y-33115921D01*
X32213866Y-33086933D01*
X32224710Y-33042467D01*
X32234333Y-32978775D01*
X32240511Y-32926048D01*
X32256806Y-32817759D01*
X32280370Y-32731845D01*
X32312781Y-32665924D01*
X32355617Y-32617618D01*
X32410456Y-32584544D01*
X32478875Y-32564324D01*
X32480547Y-32564005D01*
X32571305Y-32557797D01*
X32652129Y-32574184D01*
X32721460Y-32611783D01*
X32777739Y-32669210D01*
X32819406Y-32745081D01*
X32844900Y-32838011D01*
X32851275Y-32893000D01*
X32852552Y-32953543D01*
X32849475Y-33016875D01*
X32849475Y-33016875D01*
G37*
X32849475Y-33016875D02*
X32843548Y-33063980D01*
X32828701Y-33120386D01*
X32805348Y-33184367D01*
X32777435Y-33246686D01*
X32748907Y-33298105D01*
X32735429Y-33317111D01*
X32726210Y-33327662D01*
X32716830Y-33332124D01*
X32703464Y-33328529D01*
X32682288Y-33314910D01*
X32649478Y-33289298D01*
X32601207Y-33249726D01*
X32595833Y-33245297D01*
X32559016Y-33214953D01*
X32599707Y-33132299D01*
X32626077Y-33068136D01*
X32643764Y-33003849D01*
X32647815Y-32977778D01*
X32647984Y-32909162D01*
X32634857Y-32851334D01*
X32610563Y-32807493D01*
X32577236Y-32780841D01*
X32537005Y-32774578D01*
X32515940Y-32779728D01*
X32494420Y-32792008D01*
X32477768Y-32813296D01*
X32464736Y-32847309D01*
X32454077Y-32897765D01*
X32444542Y-32968379D01*
X32440688Y-33003825D01*
X32432694Y-33068417D01*
X32423032Y-33127680D01*
X32412954Y-33174819D01*
X32404200Y-33202041D01*
X32359427Y-33268867D01*
X32298347Y-33318854D01*
X32241550Y-33343787D01*
X32148060Y-33360587D01*
X32062881Y-33353686D01*
X31987403Y-33323712D01*
X31923015Y-33271293D01*
X31871108Y-33197057D01*
X31858136Y-33170536D01*
X31838829Y-33122090D01*
X31827071Y-33075852D01*
X31820754Y-33021471D01*
X31818542Y-32976057D01*
X31818120Y-32916495D01*
X31820379Y-32859272D01*
X31824853Y-32814390D01*
X31826559Y-32804816D01*
X31842486Y-32752147D01*
X31868734Y-32688634D01*
X31900870Y-32623360D01*
X31934464Y-32565404D01*
X31961882Y-32527473D01*
X31997651Y-32485797D01*
X32071832Y-32560760D01*
X32146013Y-32635722D01*
X32099126Y-32700985D01*
X32048581Y-32789984D01*
X32022144Y-32884154D01*
X32017311Y-32955343D01*
X32025219Y-33024071D01*
X32046045Y-33080308D01*
X32077347Y-33120854D01*
X32116679Y-33142505D01*
X32160089Y-33142452D01*
X32182948Y-33133179D01*
X32200410Y-33115921D01*
X32213866Y-33086933D01*
X32224710Y-33042467D01*
X32234333Y-32978775D01*
X32240511Y-32926048D01*
X32256806Y-32817759D01*
X32280370Y-32731845D01*
X32312781Y-32665924D01*
X32355617Y-32617618D01*
X32410456Y-32584544D01*
X32478875Y-32564324D01*
X32480547Y-32564005D01*
X32571305Y-32557797D01*
X32652129Y-32574184D01*
X32721460Y-32611783D01*
X32777739Y-32669210D01*
X32819406Y-32745081D01*
X32844900Y-32838011D01*
X32851275Y-32893000D01*
X32852552Y-32953543D01*
X32849475Y-33016875D01*
G36*
X32852086Y-33916007D02*
X32833913Y-34019146D01*
X32794203Y-34110168D01*
X32734272Y-34187113D01*
X32655434Y-34248020D01*
X32615155Y-34269205D01*
X32591379Y-34279171D01*
X32566736Y-34286371D01*
X32536669Y-34291245D01*
X32496619Y-34294234D01*
X32442029Y-34295778D01*
X32368341Y-34296317D01*
X32334200Y-34296350D01*
X32252015Y-34296078D01*
X32190668Y-34294970D01*
X32145603Y-34292585D01*
X32112261Y-34288483D01*
X32086084Y-34282224D01*
X32062515Y-34273366D01*
X32053246Y-34269205D01*
X31966024Y-34216125D01*
X31898336Y-34147065D01*
X31850875Y-34063079D01*
X31824331Y-33965219D01*
X31819187Y-33912862D01*
X31818174Y-33859609D01*
X31819882Y-33811456D01*
X31823940Y-33777994D01*
X31824507Y-33775650D01*
X31857506Y-33690945D01*
X31907598Y-33614997D01*
X31970264Y-33553431D01*
X32033856Y-33514891D01*
X32105281Y-33491771D01*
X32193694Y-33475944D01*
X32291668Y-33467686D01*
X32352945Y-33467436D01*
X32352945Y-33680665D01*
X32276742Y-33683164D01*
X32205527Y-33692242D01*
X32146532Y-33707752D01*
X32115766Y-33722761D01*
X32067655Y-33769086D01*
X32038988Y-33827873D01*
X32030952Y-33893929D01*
X32044730Y-33962060D01*
X32055546Y-33986660D01*
X32080346Y-34024650D01*
X32112790Y-34052155D01*
X32156822Y-34070587D01*
X32216389Y-34081355D01*
X32295439Y-34085870D01*
X32334200Y-34086242D01*
X32422041Y-34084033D01*
X32488713Y-34076394D01*
X32538147Y-34061802D01*
X32574272Y-34038737D01*
X32601018Y-34005678D01*
X32615585Y-33977320D01*
X32635652Y-33905553D01*
X32632378Y-33837680D01*
X32606798Y-33777264D01*
X32559948Y-33727869D01*
X32539186Y-33714119D01*
X32491397Y-33695995D01*
X32426907Y-33684893D01*
X32352945Y-33680665D01*
X32352945Y-33467436D01*
X32391779Y-33467277D01*
X32486601Y-33474994D01*
X32568709Y-33491117D01*
X32579911Y-33494414D01*
X32669354Y-33534618D01*
X32742902Y-33593364D01*
X32798983Y-33668214D01*
X32836025Y-33756734D01*
X32852454Y-33856486D01*
X32852086Y-33916007D01*
X32852086Y-33916007D01*
G37*
X32852086Y-33916007D02*
X32833913Y-34019146D01*
X32794203Y-34110168D01*
X32734272Y-34187113D01*
X32655434Y-34248020D01*
X32615155Y-34269205D01*
X32591379Y-34279171D01*
X32566736Y-34286371D01*
X32536669Y-34291245D01*
X32496619Y-34294234D01*
X32442029Y-34295778D01*
X32368341Y-34296317D01*
X32334200Y-34296350D01*
X32252015Y-34296078D01*
X32190668Y-34294970D01*
X32145603Y-34292585D01*
X32112261Y-34288483D01*
X32086084Y-34282224D01*
X32062515Y-34273366D01*
X32053246Y-34269205D01*
X31966024Y-34216125D01*
X31898336Y-34147065D01*
X31850875Y-34063079D01*
X31824331Y-33965219D01*
X31819187Y-33912862D01*
X31818174Y-33859609D01*
X31819882Y-33811456D01*
X31823940Y-33777994D01*
X31824507Y-33775650D01*
X31857506Y-33690945D01*
X31907598Y-33614997D01*
X31970264Y-33553431D01*
X32033856Y-33514891D01*
X32105281Y-33491771D01*
X32193694Y-33475944D01*
X32291668Y-33467686D01*
X32352945Y-33467436D01*
X32352945Y-33680665D01*
X32276742Y-33683164D01*
X32205527Y-33692242D01*
X32146532Y-33707752D01*
X32115766Y-33722761D01*
X32067655Y-33769086D01*
X32038988Y-33827873D01*
X32030952Y-33893929D01*
X32044730Y-33962060D01*
X32055546Y-33986660D01*
X32080346Y-34024650D01*
X32112790Y-34052155D01*
X32156822Y-34070587D01*
X32216389Y-34081355D01*
X32295439Y-34085870D01*
X32334200Y-34086242D01*
X32422041Y-34084033D01*
X32488713Y-34076394D01*
X32538147Y-34061802D01*
X32574272Y-34038737D01*
X32601018Y-34005678D01*
X32615585Y-33977320D01*
X32635652Y-33905553D01*
X32632378Y-33837680D01*
X32606798Y-33777264D01*
X32559948Y-33727869D01*
X32539186Y-33714119D01*
X32491397Y-33695995D01*
X32426907Y-33684893D01*
X32352945Y-33680665D01*
X32352945Y-33467436D01*
X32391779Y-33467277D01*
X32486601Y-33474994D01*
X32568709Y-33491117D01*
X32579911Y-33494414D01*
X32669354Y-33534618D01*
X32742902Y-33593364D01*
X32798983Y-33668214D01*
X32836025Y-33756734D01*
X32852454Y-33856486D01*
X32852086Y-33916007D01*
G36*
X32513998Y-34683700D02*
X32413895Y-34683784D01*
X32335802Y-34684206D01*
X32276330Y-34685223D01*
X32232090Y-34687091D01*
X32199693Y-34690064D01*
X32175749Y-34694399D01*
X32156869Y-34700351D01*
X32139663Y-34708177D01*
X32131161Y-34712591D01*
X32077621Y-34753306D01*
X32043851Y-34805177D01*
X32029853Y-34863410D01*
X32035630Y-34923211D01*
X32061182Y-34979788D01*
X32106511Y-35028348D01*
X32131044Y-35044963D01*
X32146126Y-35052914D01*
X32163259Y-35059147D01*
X32185706Y-35063926D01*
X32216734Y-35067514D01*
X32259607Y-35070175D01*
X32317592Y-35072173D01*
X32393952Y-35073772D01*
X32491954Y-35075234D01*
X32508825Y-35075459D01*
X32842200Y-35079868D01*
X32842200Y-35280600D01*
X31826200Y-35280600D01*
X31826200Y-35077400D01*
X31929780Y-35077400D01*
X31886379Y-35026696D01*
X31839651Y-34953551D01*
X31815627Y-34871882D01*
X31814597Y-34785112D01*
X31836849Y-34696662D01*
X31855045Y-34656234D01*
X31907533Y-34579444D01*
X31975062Y-34523080D01*
X32057347Y-34487365D01*
X32080619Y-34481596D01*
X32112622Y-34477564D01*
X32166537Y-34474074D01*
X32238880Y-34471243D01*
X32326167Y-34469187D01*
X32424914Y-34468023D01*
X32493576Y-34467800D01*
X32842200Y-34467800D01*
X32842200Y-34683700D01*
X32513998Y-34683700D01*
X32513998Y-34683700D01*
G37*
X32513998Y-34683700D02*
X32413895Y-34683784D01*
X32335802Y-34684206D01*
X32276330Y-34685223D01*
X32232090Y-34687091D01*
X32199693Y-34690064D01*
X32175749Y-34694399D01*
X32156869Y-34700351D01*
X32139663Y-34708177D01*
X32131161Y-34712591D01*
X32077621Y-34753306D01*
X32043851Y-34805177D01*
X32029853Y-34863410D01*
X32035630Y-34923211D01*
X32061182Y-34979788D01*
X32106511Y-35028348D01*
X32131044Y-35044963D01*
X32146126Y-35052914D01*
X32163259Y-35059147D01*
X32185706Y-35063926D01*
X32216734Y-35067514D01*
X32259607Y-35070175D01*
X32317592Y-35072173D01*
X32393952Y-35073772D01*
X32491954Y-35075234D01*
X32508825Y-35075459D01*
X32842200Y-35079868D01*
X32842200Y-35280600D01*
X31826200Y-35280600D01*
X31826200Y-35077400D01*
X31929780Y-35077400D01*
X31886379Y-35026696D01*
X31839651Y-34953551D01*
X31815627Y-34871882D01*
X31814597Y-34785112D01*
X31836849Y-34696662D01*
X31855045Y-34656234D01*
X31907533Y-34579444D01*
X31975062Y-34523080D01*
X32057347Y-34487365D01*
X32080619Y-34481596D01*
X32112622Y-34477564D01*
X32166537Y-34474074D01*
X32238880Y-34471243D01*
X32326167Y-34469187D01*
X32424914Y-34468023D01*
X32493576Y-34467800D01*
X32842200Y-34467800D01*
X32842200Y-34683700D01*
X32513998Y-34683700D01*
G36*
X32851426Y-36662712D02*
X32828455Y-36762082D01*
X32784109Y-36857660D01*
X32718448Y-36946036D01*
X32717131Y-36947475D01*
X32694008Y-36970244D01*
X32677787Y-36981972D01*
X32675981Y-36982400D01*
X32663975Y-36973450D01*
X32640220Y-36949704D01*
X32609302Y-36915815D01*
X32600965Y-36906274D01*
X32535017Y-36830149D01*
X32569883Y-36788799D01*
X32615525Y-36717454D01*
X32637035Y-36641689D01*
X32634007Y-36564073D01*
X32614801Y-36504893D01*
X32578736Y-36449381D01*
X32527093Y-36409590D01*
X32457952Y-36384615D01*
X32369393Y-36373552D01*
X32334200Y-36372800D01*
X32238538Y-36379299D01*
X32162953Y-36399401D01*
X32105525Y-36434008D01*
X32064334Y-36484026D01*
X32053600Y-36504893D01*
X32031486Y-36582181D01*
X32034204Y-36659614D01*
X32061339Y-36734557D01*
X32098329Y-36788574D01*
X32133006Y-36829699D01*
X32066599Y-36906049D01*
X32034356Y-36941799D01*
X32008007Y-36968588D01*
X31992186Y-36981772D01*
X31990386Y-36982400D01*
X31973960Y-36972340D01*
X31948959Y-36945833D01*
X31919576Y-36908389D01*
X31890004Y-36865517D01*
X31864438Y-36822728D01*
X31855408Y-36805073D01*
X31827566Y-36721504D01*
X31816072Y-36626900D01*
X31821337Y-36530004D01*
X31838930Y-36453482D01*
X31879795Y-36366881D01*
X31923318Y-36309905D01*
X31990067Y-36248005D01*
X32065248Y-36203189D01*
X32152295Y-36174311D01*
X32254640Y-36160224D01*
X32373250Y-36159672D01*
X32472756Y-36168065D01*
X32553515Y-36184996D01*
X32621389Y-36212707D01*
X32682236Y-36253438D01*
X32728392Y-36295490D01*
X32791506Y-36375939D01*
X32833011Y-36466232D01*
X32852964Y-36562959D01*
X32851426Y-36662712D01*
X32851426Y-36662712D01*
G37*
X32851426Y-36662712D02*
X32828455Y-36762082D01*
X32784109Y-36857660D01*
X32718448Y-36946036D01*
X32717131Y-36947475D01*
X32694008Y-36970244D01*
X32677787Y-36981972D01*
X32675981Y-36982400D01*
X32663975Y-36973450D01*
X32640220Y-36949704D01*
X32609302Y-36915815D01*
X32600965Y-36906274D01*
X32535017Y-36830149D01*
X32569883Y-36788799D01*
X32615525Y-36717454D01*
X32637035Y-36641689D01*
X32634007Y-36564073D01*
X32614801Y-36504893D01*
X32578736Y-36449381D01*
X32527093Y-36409590D01*
X32457952Y-36384615D01*
X32369393Y-36373552D01*
X32334200Y-36372800D01*
X32238538Y-36379299D01*
X32162953Y-36399401D01*
X32105525Y-36434008D01*
X32064334Y-36484026D01*
X32053600Y-36504893D01*
X32031486Y-36582181D01*
X32034204Y-36659614D01*
X32061339Y-36734557D01*
X32098329Y-36788574D01*
X32133006Y-36829699D01*
X32066599Y-36906049D01*
X32034356Y-36941799D01*
X32008007Y-36968588D01*
X31992186Y-36981772D01*
X31990386Y-36982400D01*
X31973960Y-36972340D01*
X31948959Y-36945833D01*
X31919576Y-36908389D01*
X31890004Y-36865517D01*
X31864438Y-36822728D01*
X31855408Y-36805073D01*
X31827566Y-36721504D01*
X31816072Y-36626900D01*
X31821337Y-36530004D01*
X31838930Y-36453482D01*
X31879795Y-36366881D01*
X31923318Y-36309905D01*
X31990067Y-36248005D01*
X32065248Y-36203189D01*
X32152295Y-36174311D01*
X32254640Y-36160224D01*
X32373250Y-36159672D01*
X32472756Y-36168065D01*
X32553515Y-36184996D01*
X32621389Y-36212707D01*
X32682236Y-36253438D01*
X32728392Y-36295490D01*
X32791506Y-36375939D01*
X32833011Y-36466232D01*
X32852964Y-36562959D01*
X32851426Y-36662712D01*
G36*
X32847461Y-37505440D02*
X32843151Y-37548683D01*
X32833824Y-37584782D01*
X32817745Y-37622841D01*
X32812912Y-37632823D01*
X32760653Y-37712196D01*
X32690418Y-37778643D01*
X32608283Y-37826645D01*
X32592767Y-37832876D01*
X32551521Y-37845739D01*
X32506301Y-37853716D01*
X32449705Y-37857725D01*
X32384524Y-37858700D01*
X32245300Y-37858700D01*
X32245300Y-37547550D01*
X32245342Y-37447669D01*
X32244958Y-37370605D01*
X32243384Y-37313775D01*
X32239859Y-37274597D01*
X32233619Y-37250490D01*
X32223901Y-37238872D01*
X32209942Y-37237161D01*
X32190979Y-37242775D01*
X32166248Y-37253134D01*
X32159168Y-37256123D01*
X32092870Y-37295517D01*
X32047211Y-37349706D01*
X32022170Y-37418722D01*
X32016895Y-37477700D01*
X32023213Y-37518010D01*
X32039383Y-37567131D01*
X32061344Y-37615506D01*
X32085038Y-37653580D01*
X32097077Y-37666453D01*
X32106734Y-37677394D01*
X32107886Y-37690802D01*
X32098517Y-37710403D01*
X32076613Y-37739926D01*
X32040161Y-37783101D01*
X32024098Y-37801550D01*
X31979694Y-37852350D01*
X31946957Y-37814250D01*
X31878653Y-37717074D01*
X31834202Y-37613256D01*
X31814015Y-37504705D01*
X31818503Y-37393333D01*
X31838303Y-37309120D01*
X31879000Y-37220327D01*
X31939037Y-37147959D01*
X32018323Y-37092082D01*
X32116769Y-37052760D01*
X32221377Y-37031618D01*
X32342079Y-37024404D01*
X32435800Y-37031821D01*
X32435800Y-37234381D01*
X32435800Y-37646123D01*
X32483128Y-37638443D01*
X32545649Y-37617295D01*
X32594428Y-37579422D01*
X32628391Y-37529570D01*
X32646466Y-37472487D01*
X32647577Y-37412920D01*
X32630653Y-37355616D01*
X32594619Y-37305321D01*
X32563991Y-37280877D01*
X32524019Y-37259522D01*
X32483788Y-37244514D01*
X32477075Y-37242902D01*
X32435800Y-37234381D01*
X32435800Y-37031821D01*
X32457191Y-37033515D01*
X32562661Y-37057977D01*
X32654436Y-37096815D01*
X32728466Y-37149057D01*
X32734767Y-37155010D01*
X32786892Y-37213419D01*
X32821355Y-37273052D01*
X32840892Y-37340903D01*
X32848235Y-37423968D01*
X32848486Y-37445950D01*
X32847461Y-37505440D01*
X32847461Y-37505440D01*
G37*
X32847461Y-37505440D02*
X32843151Y-37548683D01*
X32833824Y-37584782D01*
X32817745Y-37622841D01*
X32812912Y-37632823D01*
X32760653Y-37712196D01*
X32690418Y-37778643D01*
X32608283Y-37826645D01*
X32592767Y-37832876D01*
X32551521Y-37845739D01*
X32506301Y-37853716D01*
X32449705Y-37857725D01*
X32384524Y-37858700D01*
X32245300Y-37858700D01*
X32245300Y-37547550D01*
X32245342Y-37447669D01*
X32244958Y-37370605D01*
X32243384Y-37313775D01*
X32239859Y-37274597D01*
X32233619Y-37250490D01*
X32223901Y-37238872D01*
X32209942Y-37237161D01*
X32190979Y-37242775D01*
X32166248Y-37253134D01*
X32159168Y-37256123D01*
X32092870Y-37295517D01*
X32047211Y-37349706D01*
X32022170Y-37418722D01*
X32016895Y-37477700D01*
X32023213Y-37518010D01*
X32039383Y-37567131D01*
X32061344Y-37615506D01*
X32085038Y-37653580D01*
X32097077Y-37666453D01*
X32106734Y-37677394D01*
X32107886Y-37690802D01*
X32098517Y-37710403D01*
X32076613Y-37739926D01*
X32040161Y-37783101D01*
X32024098Y-37801550D01*
X31979694Y-37852350D01*
X31946957Y-37814250D01*
X31878653Y-37717074D01*
X31834202Y-37613256D01*
X31814015Y-37504705D01*
X31818503Y-37393333D01*
X31838303Y-37309120D01*
X31879000Y-37220327D01*
X31939037Y-37147959D01*
X32018323Y-37092082D01*
X32116769Y-37052760D01*
X32221377Y-37031618D01*
X32342079Y-37024404D01*
X32435800Y-37031821D01*
X32435800Y-37234381D01*
X32435800Y-37646123D01*
X32483128Y-37638443D01*
X32545649Y-37617295D01*
X32594428Y-37579422D01*
X32628391Y-37529570D01*
X32646466Y-37472487D01*
X32647577Y-37412920D01*
X32630653Y-37355616D01*
X32594619Y-37305321D01*
X32563991Y-37280877D01*
X32524019Y-37259522D01*
X32483788Y-37244514D01*
X32477075Y-37242902D01*
X32435800Y-37234381D01*
X32435800Y-37031821D01*
X32457191Y-37033515D01*
X32562661Y-37057977D01*
X32654436Y-37096815D01*
X32728466Y-37149057D01*
X32734767Y-37155010D01*
X32786892Y-37213419D01*
X32821355Y-37273052D01*
X32840892Y-37340903D01*
X32848235Y-37423968D01*
X32848486Y-37445950D01*
X32847461Y-37505440D01*
G36*
X32845492Y-31692476D02*
X32841875Y-31706711D01*
X32811304Y-31776169D01*
X32762602Y-31841749D01*
X32702645Y-31895129D01*
X32669701Y-31915100D01*
X32651616Y-31924030D01*
X32634347Y-31931136D01*
X32614823Y-31936659D01*
X32589971Y-31940841D01*
X32556719Y-31943924D01*
X32511994Y-31946149D01*
X32452725Y-31947756D01*
X32375839Y-31948989D01*
X32278265Y-31950088D01*
X32216725Y-31950702D01*
X31826200Y-31954554D01*
X31826200Y-31737300D01*
X32153710Y-31737300D01*
X32253805Y-31737208D01*
X32331918Y-31736766D01*
X32391464Y-31735718D01*
X32435860Y-31733810D01*
X32468522Y-31730789D01*
X32492867Y-31726400D01*
X32512312Y-31720388D01*
X32530273Y-31712501D01*
X32537885Y-31708725D01*
X32592590Y-31669707D01*
X32625167Y-31618514D01*
X32636146Y-31554173D01*
X32635127Y-31529978D01*
X32619029Y-31462730D01*
X32583165Y-31411118D01*
X32536498Y-31378544D01*
X32520504Y-31371713D01*
X32500434Y-31366420D01*
X32473069Y-31362475D01*
X32435188Y-31359689D01*
X32383569Y-31357872D01*
X32314993Y-31356834D01*
X32226238Y-31356385D01*
X32159575Y-31356319D01*
X31826200Y-31356300D01*
X31826200Y-31140400D01*
X32842200Y-31140400D01*
X32842200Y-31356300D01*
X32748873Y-31356300D01*
X32775001Y-31384875D01*
X32817266Y-31448366D01*
X32844129Y-31525735D01*
X32854051Y-31609573D01*
X32845492Y-31692476D01*
X32845492Y-31692476D01*
G37*
X32845492Y-31692476D02*
X32841875Y-31706711D01*
X32811304Y-31776169D01*
X32762602Y-31841749D01*
X32702645Y-31895129D01*
X32669701Y-31915100D01*
X32651616Y-31924030D01*
X32634347Y-31931136D01*
X32614823Y-31936659D01*
X32589971Y-31940841D01*
X32556719Y-31943924D01*
X32511994Y-31946149D01*
X32452725Y-31947756D01*
X32375839Y-31948989D01*
X32278265Y-31950088D01*
X32216725Y-31950702D01*
X31826200Y-31954554D01*
X31826200Y-31737300D01*
X32153710Y-31737300D01*
X32253805Y-31737208D01*
X32331918Y-31736766D01*
X32391464Y-31735718D01*
X32435860Y-31733810D01*
X32468522Y-31730789D01*
X32492867Y-31726400D01*
X32512312Y-31720388D01*
X32530273Y-31712501D01*
X32537885Y-31708725D01*
X32592590Y-31669707D01*
X32625167Y-31618514D01*
X32636146Y-31554173D01*
X32635127Y-31529978D01*
X32619029Y-31462730D01*
X32583165Y-31411118D01*
X32536498Y-31378544D01*
X32520504Y-31371713D01*
X32500434Y-31366420D01*
X32473069Y-31362475D01*
X32435188Y-31359689D01*
X32383569Y-31357872D01*
X32314993Y-31356834D01*
X32226238Y-31356385D01*
X32159575Y-31356319D01*
X31826200Y-31356300D01*
X31826200Y-31140400D01*
X32842200Y-31140400D01*
X32842200Y-31356300D01*
X32748873Y-31356300D01*
X32775001Y-31384875D01*
X32817266Y-31448366D01*
X32844129Y-31525735D01*
X32854051Y-31609573D01*
X32845492Y-31692476D01*
G36*
X32845143Y-36039136D02*
X32831544Y-36086091D01*
X32814360Y-36129778D01*
X32796274Y-36163660D01*
X32779968Y-36181201D01*
X32775806Y-36182300D01*
X32760559Y-36174714D01*
X32731197Y-36154447D01*
X32692990Y-36125237D01*
X32675676Y-36111284D01*
X32588874Y-36040268D01*
X32615337Y-35988397D01*
X32635784Y-35923490D01*
X32633330Y-35859271D01*
X32609553Y-35800823D01*
X32566034Y-35753228D01*
X32536498Y-35734644D01*
X32520504Y-35727813D01*
X32500434Y-35722520D01*
X32473069Y-35718575D01*
X32435188Y-35715789D01*
X32383569Y-35713972D01*
X32314993Y-35712934D01*
X32226238Y-35712485D01*
X32159575Y-35712419D01*
X31826200Y-35712400D01*
X31826200Y-35496500D01*
X32842200Y-35496500D01*
X32842200Y-35712400D01*
X32753141Y-35712400D01*
X32789500Y-35762592D01*
X32831806Y-35842084D01*
X32852086Y-35931131D01*
X32852477Y-35995449D01*
X32845143Y-36039136D01*
X32845143Y-36039136D01*
G37*
X32845143Y-36039136D02*
X32831544Y-36086091D01*
X32814360Y-36129778D01*
X32796274Y-36163660D01*
X32779968Y-36181201D01*
X32775806Y-36182300D01*
X32760559Y-36174714D01*
X32731197Y-36154447D01*
X32692990Y-36125237D01*
X32675676Y-36111284D01*
X32588874Y-36040268D01*
X32615337Y-35988397D01*
X32635784Y-35923490D01*
X32633330Y-35859271D01*
X32609553Y-35800823D01*
X32566034Y-35753228D01*
X32536498Y-35734644D01*
X32520504Y-35727813D01*
X32500434Y-35722520D01*
X32473069Y-35718575D01*
X32435188Y-35715789D01*
X32383569Y-35713972D01*
X32314993Y-35712934D01*
X32226238Y-35712485D01*
X32159575Y-35712419D01*
X31826200Y-35712400D01*
X31826200Y-35496500D01*
X32842200Y-35496500D01*
X32842200Y-35712400D01*
X32753141Y-35712400D01*
X32789500Y-35762592D01*
X32831806Y-35842084D01*
X32852086Y-35931131D01*
X32852477Y-35995449D01*
X32845143Y-36039136D01*
G36*
X40351075Y-33551033D02*
X40330817Y-33556367D01*
X40288618Y-33565612D01*
X40227533Y-33578161D01*
X40150620Y-33593408D01*
X40060931Y-33610749D01*
X39961523Y-33629576D01*
X39858950Y-33648639D01*
X39753452Y-33668396D01*
X39655093Y-33687447D01*
X39566862Y-33705165D01*
X39491747Y-33720925D01*
X39432734Y-33734099D01*
X39392811Y-33744061D01*
X39375085Y-33750106D01*
X39360491Y-33768849D01*
X39337567Y-33811550D01*
X39306327Y-33878176D01*
X39266788Y-33968695D01*
X39218964Y-34083074D01*
X39213160Y-34097203D01*
X39177975Y-34183724D01*
X39146197Y-34263256D01*
X39119067Y-34332581D01*
X39097826Y-34388484D01*
X39083713Y-34427749D01*
X39077969Y-34447159D01*
X39077900Y-34447992D01*
X39084885Y-34462820D01*
X39104796Y-34496117D01*
X39136073Y-34545493D01*
X39177154Y-34608555D01*
X39226476Y-34682911D01*
X39282479Y-34766169D01*
X39343600Y-34855937D01*
X39357301Y-34875917D01*
X39419924Y-34967827D01*
X39477538Y-35053729D01*
X39528598Y-35131224D01*
X39571564Y-35197913D01*
X39604894Y-35251396D01*
X39627044Y-35289275D01*
X39636473Y-35309150D01*
X39636701Y-35310613D01*
X39629624Y-35325566D01*
X39607943Y-35353689D01*
X39570977Y-35395714D01*
X39518047Y-35452372D01*
X39448475Y-35524394D01*
X39361580Y-35612510D01*
X39283249Y-35690980D01*
X39194053Y-35779867D01*
X39120968Y-35852341D01*
X39062187Y-35909991D01*
X39015904Y-35954407D01*
X38980313Y-35987178D01*
X38953607Y-36009896D01*
X38933980Y-36024149D01*
X38919626Y-36031527D01*
X38908739Y-36033621D01*
X38899511Y-36032021D01*
X38896854Y-36031079D01*
X38879104Y-36021201D01*
X38843014Y-35998568D01*
X38791137Y-35964871D01*
X38726029Y-35921800D01*
X38650242Y-35871045D01*
X38566329Y-35814294D01*
X38476846Y-35753239D01*
X38473837Y-35751177D01*
X38384991Y-35690604D01*
X38302274Y-35634838D01*
X38228119Y-35585470D01*
X38164957Y-35544093D01*
X38115221Y-35512299D01*
X38081343Y-35491681D01*
X38065754Y-35483830D01*
X38065432Y-35483800D01*
X38045832Y-35488876D01*
X38006880Y-35503029D01*
X37952264Y-35524643D01*
X37885672Y-35552105D01*
X37810793Y-35583798D01*
X37731315Y-35618109D01*
X37650926Y-35653422D01*
X37573314Y-35688123D01*
X37502168Y-35720597D01*
X37441177Y-35749230D01*
X37394027Y-35772405D01*
X37364408Y-35788510D01*
X37356527Y-35794168D01*
X37348427Y-35806564D01*
X37339751Y-35828179D01*
X37329963Y-35861344D01*
X37318525Y-35908394D01*
X37304900Y-35971661D01*
X37288551Y-36053477D01*
X37268942Y-36156177D01*
X37250914Y-36252950D01*
X37227252Y-36380697D01*
X37207634Y-36485735D01*
X37191527Y-36570341D01*
X37178404Y-36636794D01*
X37167734Y-36687368D01*
X37158987Y-36724342D01*
X37151633Y-36749991D01*
X37145143Y-36766593D01*
X37138986Y-36776425D01*
X37132634Y-36781763D01*
X37127274Y-36784244D01*
X37110432Y-36785967D01*
X37071110Y-36787555D01*
X37012229Y-36788963D01*
X36936710Y-36790146D01*
X36847473Y-36791059D01*
X36747439Y-36791657D01*
X36639527Y-36791897D01*
X36627169Y-36791900D01*
X36503236Y-36791820D01*
X36402209Y-36791510D01*
X36321595Y-36790859D01*
X36258900Y-36789757D01*
X36211631Y-36788095D01*
X36177293Y-36785763D01*
X36153393Y-36782651D01*
X36137438Y-36778651D01*
X36126934Y-36773652D01*
X36121688Y-36769675D01*
X36114151Y-36759754D01*
X36106177Y-36741611D01*
X36097243Y-36712947D01*
X36086823Y-36671460D01*
X36074390Y-36614851D01*
X36059421Y-36540820D01*
X36041389Y-36447065D01*
X36019768Y-36331287D01*
X36012247Y-36290518D01*
X35988183Y-36161337D01*
X35967798Y-36055472D01*
X35950703Y-35971166D01*
X35936505Y-35906663D01*
X35924816Y-35860206D01*
X35915243Y-35830041D01*
X35907396Y-35814409D01*
X35905991Y-35812864D01*
X35887703Y-35802013D01*
X35849734Y-35783995D01*
X35795621Y-35760205D01*
X35728905Y-35732041D01*
X35653125Y-35700897D01*
X35571820Y-35668171D01*
X35488529Y-35635259D01*
X35406791Y-35603557D01*
X35330145Y-35574460D01*
X35262131Y-35549366D01*
X35206287Y-35529671D01*
X35166153Y-35516770D01*
X35145268Y-35512061D01*
X35143837Y-35512187D01*
X35128547Y-35520535D01*
X35094909Y-35541663D01*
X35045455Y-35573892D01*
X34982718Y-35615543D01*
X34909231Y-35664934D01*
X34827526Y-35720386D01*
X34750596Y-35773030D01*
X34663485Y-35832593D01*
X34582123Y-35887702D01*
X34509086Y-35936651D01*
X34446950Y-35977736D01*
X34398291Y-36009251D01*
X34365685Y-36029493D01*
X34352360Y-36036612D01*
X34343126Y-36036511D01*
X34329505Y-36030377D01*
X34309821Y-36016694D01*
X34282399Y-35993948D01*
X34245566Y-35960624D01*
X34197647Y-35915207D01*
X34136967Y-35856183D01*
X34061852Y-35782038D01*
X33971139Y-35691765D01*
X33868813Y-35589005D01*
X33783443Y-35501827D01*
X33715334Y-35430562D01*
X33664795Y-35375538D01*
X33632133Y-35337083D01*
X33617654Y-35315526D01*
X33616900Y-35312521D01*
X33623891Y-35296399D01*
X33643780Y-35261962D01*
X33674946Y-35211737D01*
X33715766Y-35148247D01*
X33764617Y-35074020D01*
X33819876Y-34991579D01*
X33877477Y-34907010D01*
X33949064Y-34802243D01*
X34006979Y-34716369D01*
X34052321Y-34647617D01*
X34086189Y-34594218D01*
X34109683Y-34554401D01*
X34123902Y-34526398D01*
X34129946Y-34508437D01*
X34129856Y-34500741D01*
X34120982Y-34479946D01*
X34102516Y-34441915D01*
X34077001Y-34391724D01*
X34046978Y-34334453D01*
X34041124Y-34323470D01*
X34003991Y-34253682D01*
X33977811Y-34202754D01*
X33961510Y-34167175D01*
X33954016Y-34143431D01*
X33954255Y-34128012D01*
X33961154Y-34117405D01*
X33973641Y-34108098D01*
X33975044Y-34107177D01*
X33995236Y-34096806D01*
X34036125Y-34078206D01*
X34095341Y-34052343D01*
X34170515Y-34020186D01*
X34259277Y-33982703D01*
X34359259Y-33940864D01*
X34468090Y-33895634D01*
X34583403Y-33847984D01*
X34702826Y-33798882D01*
X34823992Y-33749295D01*
X34944530Y-33700191D01*
X35062072Y-33652540D01*
X35174247Y-33607309D01*
X35278687Y-33565467D01*
X35373023Y-33527982D01*
X35454885Y-33495822D01*
X35521903Y-33469955D01*
X35571709Y-33451350D01*
X35601933Y-33440975D01*
X35609826Y-33439100D01*
X35638018Y-33444530D01*
X35660928Y-33464728D01*
X35675725Y-33486725D01*
X35779421Y-33636989D01*
X35894549Y-33765209D01*
X36020549Y-33871045D01*
X36156857Y-33954159D01*
X36302913Y-34014213D01*
X36458154Y-34050867D01*
X36622018Y-34063783D01*
X36633150Y-34063793D01*
X36793406Y-34050939D01*
X36946426Y-34014495D01*
X37090241Y-33955715D01*
X37222884Y-33875857D01*
X37342387Y-33776178D01*
X37446781Y-33657933D01*
X37534099Y-33522378D01*
X37559690Y-33472272D01*
X37603632Y-33372266D01*
X37633474Y-33281723D01*
X37651377Y-33191092D01*
X37659502Y-33090824D01*
X37660586Y-33026350D01*
X37657028Y-32916421D01*
X37644911Y-32821522D01*
X37622075Y-32732104D01*
X37586360Y-32638615D01*
X37559690Y-32580427D01*
X37478664Y-32439242D01*
X37379889Y-32314936D01*
X37265332Y-32208765D01*
X37136961Y-32121987D01*
X36996746Y-32055857D01*
X36846653Y-32011633D01*
X36688650Y-31990570D01*
X36633150Y-31988906D01*
X36468736Y-32000240D01*
X36312907Y-32035334D01*
X36166226Y-32093850D01*
X36029256Y-32175449D01*
X35902557Y-32279792D01*
X35786691Y-32406541D01*
X35682222Y-32555358D01*
X35675725Y-32565975D01*
X35652063Y-32598018D01*
X35628050Y-32611732D01*
X35609826Y-32613599D01*
X35593043Y-32608859D01*
X35555197Y-32595284D01*
X35498658Y-32573842D01*
X35425795Y-32545501D01*
X35338978Y-32511231D01*
X35240575Y-32471998D01*
X35132956Y-32428771D01*
X35018490Y-32382519D01*
X34899547Y-32334210D01*
X34778496Y-32284812D01*
X34657706Y-32235293D01*
X34539546Y-32186622D01*
X34426387Y-32139766D01*
X34320597Y-32095694D01*
X34224545Y-32055375D01*
X34140601Y-32019777D01*
X34071135Y-31989867D01*
X34018515Y-31966614D01*
X33985110Y-31950987D01*
X33975044Y-31945522D01*
X33962093Y-31936158D01*
X33954631Y-31925819D01*
X33953729Y-31910994D01*
X33960461Y-31888170D01*
X33975900Y-31853836D01*
X34001120Y-31804479D01*
X34037192Y-31736587D01*
X34041124Y-31729229D01*
X34071703Y-31671203D01*
X34098245Y-31619317D01*
X34118208Y-31578649D01*
X34129052Y-31554278D01*
X34129856Y-31551958D01*
X34129009Y-31540122D01*
X34120776Y-31519516D01*
X34104059Y-31488368D01*
X34077759Y-31444910D01*
X34040774Y-31387372D01*
X33992007Y-31313983D01*
X33930358Y-31222973D01*
X33877477Y-31145689D01*
X33817590Y-31057737D01*
X33762554Y-30975573D01*
X33713990Y-30901722D01*
X33673521Y-30838709D01*
X33642770Y-30789060D01*
X33623359Y-30755299D01*
X33616900Y-30740178D01*
X33626138Y-30723499D01*
X33653648Y-30689829D01*
X33699121Y-30639495D01*
X33762251Y-30572827D01*
X33842731Y-30490153D01*
X33940254Y-30391802D01*
X33971139Y-30360934D01*
X34062277Y-30270241D01*
X34137313Y-30196176D01*
X34197923Y-30137226D01*
X34245781Y-30091875D01*
X34282562Y-30058609D01*
X34309940Y-30035913D01*
X34329589Y-30022273D01*
X34343183Y-30016174D01*
X34352360Y-30016087D01*
X34368847Y-30025093D01*
X34403635Y-30046861D01*
X34454149Y-30079686D01*
X34517812Y-30121864D01*
X34592049Y-30171690D01*
X34674284Y-30227459D01*
X34750596Y-30279669D01*
X34837451Y-30339075D01*
X34918323Y-30393904D01*
X34990681Y-30442474D01*
X35051991Y-30483107D01*
X35099722Y-30514121D01*
X35131339Y-30533837D01*
X35143837Y-30540512D01*
X35160923Y-30537407D01*
X35197888Y-30525863D01*
X35251193Y-30507276D01*
X35317298Y-30483041D01*
X35392666Y-30454555D01*
X35473756Y-30423215D01*
X35557030Y-30390416D01*
X35638948Y-30357555D01*
X35715971Y-30326027D01*
X35784560Y-30297230D01*
X35841176Y-30272559D01*
X35882280Y-30253410D01*
X35904332Y-30241180D01*
X35905991Y-30239835D01*
X35913538Y-30226916D01*
X35922732Y-30199816D01*
X35933964Y-30156780D01*
X35947625Y-30096050D01*
X35964106Y-30015870D01*
X35983797Y-29914485D01*
X36007089Y-29790137D01*
X36012247Y-29762181D01*
X36035087Y-29639101D01*
X36054177Y-29538757D01*
X36070041Y-29458851D01*
X36083204Y-29397081D01*
X36094193Y-29351148D01*
X36103532Y-29318750D01*
X36111747Y-29297588D01*
X36119364Y-29285362D01*
X36121688Y-29283025D01*
X36129929Y-29277292D01*
X36141945Y-29272632D01*
X36160229Y-29268935D01*
X36187275Y-29266091D01*
X36225577Y-29263991D01*
X36277628Y-29262525D01*
X36345921Y-29261583D01*
X36432950Y-29261055D01*
X36541210Y-29260833D01*
X36627169Y-29260800D01*
X36735776Y-29260996D01*
X36836830Y-29261557D01*
X36927412Y-29262438D01*
X37004601Y-29263593D01*
X37065476Y-29264978D01*
X37107117Y-29266548D01*
X37126603Y-29268258D01*
X37127274Y-29268455D01*
X37134139Y-29271885D01*
X37140400Y-29278054D01*
X37146586Y-29289241D01*
X37153228Y-29307721D01*
X37160855Y-29335772D01*
X37169997Y-29375671D01*
X37181185Y-29429693D01*
X37194947Y-29500118D01*
X37211813Y-29589220D01*
X37232315Y-29699276D01*
X37250914Y-29799749D01*
X37273459Y-29920477D01*
X37292322Y-30018491D01*
X37308040Y-30096123D01*
X37321150Y-30155707D01*
X37332188Y-30199576D01*
X37341692Y-30230061D01*
X37350198Y-30249497D01*
X37356527Y-30258531D01*
X37373651Y-30269532D01*
X37410554Y-30288590D01*
X37463547Y-30314088D01*
X37528942Y-30344413D01*
X37603051Y-30377949D01*
X37682186Y-30413081D01*
X37762658Y-30448195D01*
X37840780Y-30481676D01*
X37912862Y-30511909D01*
X37975217Y-30537280D01*
X38024156Y-30556173D01*
X38055991Y-30566974D01*
X38065432Y-30568900D01*
X38079748Y-30561933D01*
X38112512Y-30542096D01*
X38161292Y-30510980D01*
X38223655Y-30470177D01*
X38297170Y-30421280D01*
X38379404Y-30365881D01*
X38467926Y-30305572D01*
X38473837Y-30301522D01*
X38563460Y-30240354D01*
X38647597Y-30183435D01*
X38723692Y-30132455D01*
X38789192Y-30089105D01*
X38841544Y-30055073D01*
X38878194Y-30032049D01*
X38896588Y-30021724D01*
X38896854Y-30021620D01*
X38905937Y-30019236D01*
X38916149Y-30020080D01*
X38929298Y-30025741D01*
X38947188Y-30037810D01*
X38971627Y-30057876D01*
X39004421Y-30087529D01*
X39047376Y-30128359D01*
X39102298Y-30181957D01*
X39170994Y-30249911D01*
X39255270Y-30333813D01*
X39283249Y-30361719D01*
X39383811Y-30462602D01*
X39466533Y-30546832D01*
X39532093Y-30615140D01*
X39581172Y-30668258D01*
X39614448Y-30706917D01*
X39632601Y-30731848D01*
X39636701Y-30742086D01*
X39629689Y-30758516D01*
X39609683Y-30793375D01*
X39578225Y-30844266D01*
X39536856Y-30908787D01*
X39487119Y-30984540D01*
X39430555Y-31069126D01*
X39368708Y-31160145D01*
X39357301Y-31176782D01*
X39295282Y-31267636D01*
X39238044Y-31352491D01*
X39187149Y-31428956D01*
X39144160Y-31494640D01*
X39110636Y-31547150D01*
X39088141Y-31584097D01*
X39078235Y-31603089D01*
X39077901Y-31604600D01*
X39082750Y-31623973D01*
X39096256Y-31662766D01*
X39116851Y-31717221D01*
X39142970Y-31783582D01*
X39173047Y-31858090D01*
X39205517Y-31936989D01*
X39238813Y-32016521D01*
X39271370Y-32092929D01*
X39301621Y-32162456D01*
X39328002Y-32221345D01*
X39348946Y-32265837D01*
X39362888Y-32292177D01*
X39366521Y-32297165D01*
X39382374Y-32305097D01*
X39416407Y-32315432D01*
X39469837Y-32328435D01*
X39543885Y-32344374D01*
X39639769Y-32363514D01*
X39758707Y-32386123D01*
X39852600Y-32403472D01*
X39959242Y-32423182D01*
X40059119Y-32441994D01*
X40149199Y-32459309D01*
X40226452Y-32474531D01*
X40287847Y-32487062D01*
X40330353Y-32496306D01*
X40350940Y-32501663D01*
X40351075Y-32501714D01*
X40386000Y-32515081D01*
X40386000Y-33537618D01*
X40351075Y-33551033D01*
X40351075Y-33551033D01*
G37*
X40351075Y-33551033D02*
X40330817Y-33556367D01*
X40288618Y-33565612D01*
X40227533Y-33578161D01*
X40150620Y-33593408D01*
X40060931Y-33610749D01*
X39961523Y-33629576D01*
X39858950Y-33648639D01*
X39753452Y-33668396D01*
X39655093Y-33687447D01*
X39566862Y-33705165D01*
X39491747Y-33720925D01*
X39432734Y-33734099D01*
X39392811Y-33744061D01*
X39375085Y-33750106D01*
X39360491Y-33768849D01*
X39337567Y-33811550D01*
X39306327Y-33878176D01*
X39266788Y-33968695D01*
X39218964Y-34083074D01*
X39213160Y-34097203D01*
X39177975Y-34183724D01*
X39146197Y-34263256D01*
X39119067Y-34332581D01*
X39097826Y-34388484D01*
X39083713Y-34427749D01*
X39077969Y-34447159D01*
X39077900Y-34447992D01*
X39084885Y-34462820D01*
X39104796Y-34496117D01*
X39136073Y-34545493D01*
X39177154Y-34608555D01*
X39226476Y-34682911D01*
X39282479Y-34766169D01*
X39343600Y-34855937D01*
X39357301Y-34875917D01*
X39419924Y-34967827D01*
X39477538Y-35053729D01*
X39528598Y-35131224D01*
X39571564Y-35197913D01*
X39604894Y-35251396D01*
X39627044Y-35289275D01*
X39636473Y-35309150D01*
X39636701Y-35310613D01*
X39629624Y-35325566D01*
X39607943Y-35353689D01*
X39570977Y-35395714D01*
X39518047Y-35452372D01*
X39448475Y-35524394D01*
X39361580Y-35612510D01*
X39283249Y-35690980D01*
X39194053Y-35779867D01*
X39120968Y-35852341D01*
X39062187Y-35909991D01*
X39015904Y-35954407D01*
X38980313Y-35987178D01*
X38953607Y-36009896D01*
X38933980Y-36024149D01*
X38919626Y-36031527D01*
X38908739Y-36033621D01*
X38899511Y-36032021D01*
X38896854Y-36031079D01*
X38879104Y-36021201D01*
X38843014Y-35998568D01*
X38791137Y-35964871D01*
X38726029Y-35921800D01*
X38650242Y-35871045D01*
X38566329Y-35814294D01*
X38476846Y-35753239D01*
X38473837Y-35751177D01*
X38384991Y-35690604D01*
X38302274Y-35634838D01*
X38228119Y-35585470D01*
X38164957Y-35544093D01*
X38115221Y-35512299D01*
X38081343Y-35491681D01*
X38065754Y-35483830D01*
X38065432Y-35483800D01*
X38045832Y-35488876D01*
X38006880Y-35503029D01*
X37952264Y-35524643D01*
X37885672Y-35552105D01*
X37810793Y-35583798D01*
X37731315Y-35618109D01*
X37650926Y-35653422D01*
X37573314Y-35688123D01*
X37502168Y-35720597D01*
X37441177Y-35749230D01*
X37394027Y-35772405D01*
X37364408Y-35788510D01*
X37356527Y-35794168D01*
X37348427Y-35806564D01*
X37339751Y-35828179D01*
X37329963Y-35861344D01*
X37318525Y-35908394D01*
X37304900Y-35971661D01*
X37288551Y-36053477D01*
X37268942Y-36156177D01*
X37250914Y-36252950D01*
X37227252Y-36380697D01*
X37207634Y-36485735D01*
X37191527Y-36570341D01*
X37178404Y-36636794D01*
X37167734Y-36687368D01*
X37158987Y-36724342D01*
X37151633Y-36749991D01*
X37145143Y-36766593D01*
X37138986Y-36776425D01*
X37132634Y-36781763D01*
X37127274Y-36784244D01*
X37110432Y-36785967D01*
X37071110Y-36787555D01*
X37012229Y-36788963D01*
X36936710Y-36790146D01*
X36847473Y-36791059D01*
X36747439Y-36791657D01*
X36639527Y-36791897D01*
X36627169Y-36791900D01*
X36503236Y-36791820D01*
X36402209Y-36791510D01*
X36321595Y-36790859D01*
X36258900Y-36789757D01*
X36211631Y-36788095D01*
X36177293Y-36785763D01*
X36153393Y-36782651D01*
X36137438Y-36778651D01*
X36126934Y-36773652D01*
X36121688Y-36769675D01*
X36114151Y-36759754D01*
X36106177Y-36741611D01*
X36097243Y-36712947D01*
X36086823Y-36671460D01*
X36074390Y-36614851D01*
X36059421Y-36540820D01*
X36041389Y-36447065D01*
X36019768Y-36331287D01*
X36012247Y-36290518D01*
X35988183Y-36161337D01*
X35967798Y-36055472D01*
X35950703Y-35971166D01*
X35936505Y-35906663D01*
X35924816Y-35860206D01*
X35915243Y-35830041D01*
X35907396Y-35814409D01*
X35905991Y-35812864D01*
X35887703Y-35802013D01*
X35849734Y-35783995D01*
X35795621Y-35760205D01*
X35728905Y-35732041D01*
X35653125Y-35700897D01*
X35571820Y-35668171D01*
X35488529Y-35635259D01*
X35406791Y-35603557D01*
X35330145Y-35574460D01*
X35262131Y-35549366D01*
X35206287Y-35529671D01*
X35166153Y-35516770D01*
X35145268Y-35512061D01*
X35143837Y-35512187D01*
X35128547Y-35520535D01*
X35094909Y-35541663D01*
X35045455Y-35573892D01*
X34982718Y-35615543D01*
X34909231Y-35664934D01*
X34827526Y-35720386D01*
X34750596Y-35773030D01*
X34663485Y-35832593D01*
X34582123Y-35887702D01*
X34509086Y-35936651D01*
X34446950Y-35977736D01*
X34398291Y-36009251D01*
X34365685Y-36029493D01*
X34352360Y-36036612D01*
X34343126Y-36036511D01*
X34329505Y-36030377D01*
X34309821Y-36016694D01*
X34282399Y-35993948D01*
X34245566Y-35960624D01*
X34197647Y-35915207D01*
X34136967Y-35856183D01*
X34061852Y-35782038D01*
X33971139Y-35691765D01*
X33868813Y-35589005D01*
X33783443Y-35501827D01*
X33715334Y-35430562D01*
X33664795Y-35375538D01*
X33632133Y-35337083D01*
X33617654Y-35315526D01*
X33616900Y-35312521D01*
X33623891Y-35296399D01*
X33643780Y-35261962D01*
X33674946Y-35211737D01*
X33715766Y-35148247D01*
X33764617Y-35074020D01*
X33819876Y-34991579D01*
X33877477Y-34907010D01*
X33949064Y-34802243D01*
X34006979Y-34716369D01*
X34052321Y-34647617D01*
X34086189Y-34594218D01*
X34109683Y-34554401D01*
X34123902Y-34526398D01*
X34129946Y-34508437D01*
X34129856Y-34500741D01*
X34120982Y-34479946D01*
X34102516Y-34441915D01*
X34077001Y-34391724D01*
X34046978Y-34334453D01*
X34041124Y-34323470D01*
X34003991Y-34253682D01*
X33977811Y-34202754D01*
X33961510Y-34167175D01*
X33954016Y-34143431D01*
X33954255Y-34128012D01*
X33961154Y-34117405D01*
X33973641Y-34108098D01*
X33975044Y-34107177D01*
X33995236Y-34096806D01*
X34036125Y-34078206D01*
X34095341Y-34052343D01*
X34170515Y-34020186D01*
X34259277Y-33982703D01*
X34359259Y-33940864D01*
X34468090Y-33895634D01*
X34583403Y-33847984D01*
X34702826Y-33798882D01*
X34823992Y-33749295D01*
X34944530Y-33700191D01*
X35062072Y-33652540D01*
X35174247Y-33607309D01*
X35278687Y-33565467D01*
X35373023Y-33527982D01*
X35454885Y-33495822D01*
X35521903Y-33469955D01*
X35571709Y-33451350D01*
X35601933Y-33440975D01*
X35609826Y-33439100D01*
X35638018Y-33444530D01*
X35660928Y-33464728D01*
X35675725Y-33486725D01*
X35779421Y-33636989D01*
X35894549Y-33765209D01*
X36020549Y-33871045D01*
X36156857Y-33954159D01*
X36302913Y-34014213D01*
X36458154Y-34050867D01*
X36622018Y-34063783D01*
X36633150Y-34063793D01*
X36793406Y-34050939D01*
X36946426Y-34014495D01*
X37090241Y-33955715D01*
X37222884Y-33875857D01*
X37342387Y-33776178D01*
X37446781Y-33657933D01*
X37534099Y-33522378D01*
X37559690Y-33472272D01*
X37603632Y-33372266D01*
X37633474Y-33281723D01*
X37651377Y-33191092D01*
X37659502Y-33090824D01*
X37660586Y-33026350D01*
X37657028Y-32916421D01*
X37644911Y-32821522D01*
X37622075Y-32732104D01*
X37586360Y-32638615D01*
X37559690Y-32580427D01*
X37478664Y-32439242D01*
X37379889Y-32314936D01*
X37265332Y-32208765D01*
X37136961Y-32121987D01*
X36996746Y-32055857D01*
X36846653Y-32011633D01*
X36688650Y-31990570D01*
X36633150Y-31988906D01*
X36468736Y-32000240D01*
X36312907Y-32035334D01*
X36166226Y-32093850D01*
X36029256Y-32175449D01*
X35902557Y-32279792D01*
X35786691Y-32406541D01*
X35682222Y-32555358D01*
X35675725Y-32565975D01*
X35652063Y-32598018D01*
X35628050Y-32611732D01*
X35609826Y-32613599D01*
X35593043Y-32608859D01*
X35555197Y-32595284D01*
X35498658Y-32573842D01*
X35425795Y-32545501D01*
X35338978Y-32511231D01*
X35240575Y-32471998D01*
X35132956Y-32428771D01*
X35018490Y-32382519D01*
X34899547Y-32334210D01*
X34778496Y-32284812D01*
X34657706Y-32235293D01*
X34539546Y-32186622D01*
X34426387Y-32139766D01*
X34320597Y-32095694D01*
X34224545Y-32055375D01*
X34140601Y-32019777D01*
X34071135Y-31989867D01*
X34018515Y-31966614D01*
X33985110Y-31950987D01*
X33975044Y-31945522D01*
X33962093Y-31936158D01*
X33954631Y-31925819D01*
X33953729Y-31910994D01*
X33960461Y-31888170D01*
X33975900Y-31853836D01*
X34001120Y-31804479D01*
X34037192Y-31736587D01*
X34041124Y-31729229D01*
X34071703Y-31671203D01*
X34098245Y-31619317D01*
X34118208Y-31578649D01*
X34129052Y-31554278D01*
X34129856Y-31551958D01*
X34129009Y-31540122D01*
X34120776Y-31519516D01*
X34104059Y-31488368D01*
X34077759Y-31444910D01*
X34040774Y-31387372D01*
X33992007Y-31313983D01*
X33930358Y-31222973D01*
X33877477Y-31145689D01*
X33817590Y-31057737D01*
X33762554Y-30975573D01*
X33713990Y-30901722D01*
X33673521Y-30838709D01*
X33642770Y-30789060D01*
X33623359Y-30755299D01*
X33616900Y-30740178D01*
X33626138Y-30723499D01*
X33653648Y-30689829D01*
X33699121Y-30639495D01*
X33762251Y-30572827D01*
X33842731Y-30490153D01*
X33940254Y-30391802D01*
X33971139Y-30360934D01*
X34062277Y-30270241D01*
X34137313Y-30196176D01*
X34197923Y-30137226D01*
X34245781Y-30091875D01*
X34282562Y-30058609D01*
X34309940Y-30035913D01*
X34329589Y-30022273D01*
X34343183Y-30016174D01*
X34352360Y-30016087D01*
X34368847Y-30025093D01*
X34403635Y-30046861D01*
X34454149Y-30079686D01*
X34517812Y-30121864D01*
X34592049Y-30171690D01*
X34674284Y-30227459D01*
X34750596Y-30279669D01*
X34837451Y-30339075D01*
X34918323Y-30393904D01*
X34990681Y-30442474D01*
X35051991Y-30483107D01*
X35099722Y-30514121D01*
X35131339Y-30533837D01*
X35143837Y-30540512D01*
X35160923Y-30537407D01*
X35197888Y-30525863D01*
X35251193Y-30507276D01*
X35317298Y-30483041D01*
X35392666Y-30454555D01*
X35473756Y-30423215D01*
X35557030Y-30390416D01*
X35638948Y-30357555D01*
X35715971Y-30326027D01*
X35784560Y-30297230D01*
X35841176Y-30272559D01*
X35882280Y-30253410D01*
X35904332Y-30241180D01*
X35905991Y-30239835D01*
X35913538Y-30226916D01*
X35922732Y-30199816D01*
X35933964Y-30156780D01*
X35947625Y-30096050D01*
X35964106Y-30015870D01*
X35983797Y-29914485D01*
X36007089Y-29790137D01*
X36012247Y-29762181D01*
X36035087Y-29639101D01*
X36054177Y-29538757D01*
X36070041Y-29458851D01*
X36083204Y-29397081D01*
X36094193Y-29351148D01*
X36103532Y-29318750D01*
X36111747Y-29297588D01*
X36119364Y-29285362D01*
X36121688Y-29283025D01*
X36129929Y-29277292D01*
X36141945Y-29272632D01*
X36160229Y-29268935D01*
X36187275Y-29266091D01*
X36225577Y-29263991D01*
X36277628Y-29262525D01*
X36345921Y-29261583D01*
X36432950Y-29261055D01*
X36541210Y-29260833D01*
X36627169Y-29260800D01*
X36735776Y-29260996D01*
X36836830Y-29261557D01*
X36927412Y-29262438D01*
X37004601Y-29263593D01*
X37065476Y-29264978D01*
X37107117Y-29266548D01*
X37126603Y-29268258D01*
X37127274Y-29268455D01*
X37134139Y-29271885D01*
X37140400Y-29278054D01*
X37146586Y-29289241D01*
X37153228Y-29307721D01*
X37160855Y-29335772D01*
X37169997Y-29375671D01*
X37181185Y-29429693D01*
X37194947Y-29500118D01*
X37211813Y-29589220D01*
X37232315Y-29699276D01*
X37250914Y-29799749D01*
X37273459Y-29920477D01*
X37292322Y-30018491D01*
X37308040Y-30096123D01*
X37321150Y-30155707D01*
X37332188Y-30199576D01*
X37341692Y-30230061D01*
X37350198Y-30249497D01*
X37356527Y-30258531D01*
X37373651Y-30269532D01*
X37410554Y-30288590D01*
X37463547Y-30314088D01*
X37528942Y-30344413D01*
X37603051Y-30377949D01*
X37682186Y-30413081D01*
X37762658Y-30448195D01*
X37840780Y-30481676D01*
X37912862Y-30511909D01*
X37975217Y-30537280D01*
X38024156Y-30556173D01*
X38055991Y-30566974D01*
X38065432Y-30568900D01*
X38079748Y-30561933D01*
X38112512Y-30542096D01*
X38161292Y-30510980D01*
X38223655Y-30470177D01*
X38297170Y-30421280D01*
X38379404Y-30365881D01*
X38467926Y-30305572D01*
X38473837Y-30301522D01*
X38563460Y-30240354D01*
X38647597Y-30183435D01*
X38723692Y-30132455D01*
X38789192Y-30089105D01*
X38841544Y-30055073D01*
X38878194Y-30032049D01*
X38896588Y-30021724D01*
X38896854Y-30021620D01*
X38905937Y-30019236D01*
X38916149Y-30020080D01*
X38929298Y-30025741D01*
X38947188Y-30037810D01*
X38971627Y-30057876D01*
X39004421Y-30087529D01*
X39047376Y-30128359D01*
X39102298Y-30181957D01*
X39170994Y-30249911D01*
X39255270Y-30333813D01*
X39283249Y-30361719D01*
X39383811Y-30462602D01*
X39466533Y-30546832D01*
X39532093Y-30615140D01*
X39581172Y-30668258D01*
X39614448Y-30706917D01*
X39632601Y-30731848D01*
X39636701Y-30742086D01*
X39629689Y-30758516D01*
X39609683Y-30793375D01*
X39578225Y-30844266D01*
X39536856Y-30908787D01*
X39487119Y-30984540D01*
X39430555Y-31069126D01*
X39368708Y-31160145D01*
X39357301Y-31176782D01*
X39295282Y-31267636D01*
X39238044Y-31352491D01*
X39187149Y-31428956D01*
X39144160Y-31494640D01*
X39110636Y-31547150D01*
X39088141Y-31584097D01*
X39078235Y-31603089D01*
X39077901Y-31604600D01*
X39082750Y-31623973D01*
X39096256Y-31662766D01*
X39116851Y-31717221D01*
X39142970Y-31783582D01*
X39173047Y-31858090D01*
X39205517Y-31936989D01*
X39238813Y-32016521D01*
X39271370Y-32092929D01*
X39301621Y-32162456D01*
X39328002Y-32221345D01*
X39348946Y-32265837D01*
X39362888Y-32292177D01*
X39366521Y-32297165D01*
X39382374Y-32305097D01*
X39416407Y-32315432D01*
X39469837Y-32328435D01*
X39543885Y-32344374D01*
X39639769Y-32363514D01*
X39758707Y-32386123D01*
X39852600Y-32403472D01*
X39959242Y-32423182D01*
X40059119Y-32441994D01*
X40149199Y-32459309D01*
X40226452Y-32474531D01*
X40287847Y-32487062D01*
X40330353Y-32496306D01*
X40350940Y-32501663D01*
X40351075Y-32501714D01*
X40386000Y-32515081D01*
X40386000Y-33537618D01*
X40351075Y-33551033D01*
D11*
X48577667Y-25169762D02*
X48720524Y-25217381D01*
X48958620Y-25217381D01*
X49053858Y-25169762D01*
X49101477Y-25122143D01*
X49149096Y-25026905D01*
X49149096Y-24931667D01*
X49101477Y-24836429D01*
X49053858Y-24788810D01*
X48958620Y-24741190D01*
X48768143Y-24693571D01*
X48672905Y-24645952D01*
X48625286Y-24598333D01*
X48577667Y-24503095D01*
X48577667Y-24407857D01*
X48625286Y-24312619D01*
X48672905Y-24265000D01*
X48768143Y-24217381D01*
X49006239Y-24217381D01*
X49149096Y-24265000D01*
X49482429Y-24217381D02*
X49720524Y-25217381D01*
X49911001Y-24503095D01*
X50101477Y-25217381D01*
X50339572Y-24217381D01*
X51244334Y-25217381D02*
X50672905Y-25217381D01*
X50958619Y-25217381D02*
X50958619Y-24217381D01*
X50863381Y-24360238D01*
X50768143Y-24455476D01*
X50672905Y-24503095D01*
X63991334Y-37635143D02*
X63943715Y-37682762D01*
X63800858Y-37730381D01*
X63705620Y-37730381D01*
X63562762Y-37682762D01*
X63467524Y-37587524D01*
X63419905Y-37492286D01*
X63372286Y-37301810D01*
X63372286Y-37158952D01*
X63419905Y-36968476D01*
X63467524Y-36873238D01*
X63562762Y-36778000D01*
X63705620Y-36730381D01*
X63800858Y-36730381D01*
X63943715Y-36778000D01*
X63991334Y-36825619D01*
X64943715Y-37730381D02*
X64372286Y-37730381D01*
X64658000Y-37730381D02*
X64658000Y-36730381D01*
X64562762Y-36873238D01*
X64467524Y-36968476D01*
X64372286Y-37016095D01*
X66023334Y-34622381D02*
X65690000Y-34146190D01*
X65451905Y-34622381D02*
X65451905Y-33622381D01*
X65832858Y-33622381D01*
X65928096Y-33670000D01*
X65975715Y-33717619D01*
X66023334Y-33812857D01*
X66023334Y-33955714D01*
X65975715Y-34050952D01*
X65928096Y-34098571D01*
X65832858Y-34146190D01*
X65451905Y-34146190D01*
X66975715Y-34622381D02*
X66404286Y-34622381D01*
X66690000Y-34622381D02*
X66690000Y-33622381D01*
X66594762Y-33765238D01*
X66499524Y-33860476D01*
X66404286Y-33908095D01*
X66023334Y-30050381D02*
X65690000Y-29574190D01*
X65451905Y-30050381D02*
X65451905Y-29050381D01*
X65832858Y-29050381D01*
X65928096Y-29098000D01*
X65975715Y-29145619D01*
X66023334Y-29240857D01*
X66023334Y-29383714D01*
X65975715Y-29478952D01*
X65928096Y-29526571D01*
X65832858Y-29574190D01*
X65451905Y-29574190D01*
X66404286Y-29145619D02*
X66451905Y-29098000D01*
X66547143Y-29050381D01*
X66785239Y-29050381D01*
X66880477Y-29098000D01*
X66928096Y-29145619D01*
X66975715Y-29240857D01*
X66975715Y-29336095D01*
X66928096Y-29478952D01*
X66356667Y-30050381D01*
X66975715Y-30050381D01*
X25600667Y-40362381D02*
X25600667Y-41076667D01*
X25553047Y-41219524D01*
X25457809Y-41314762D01*
X25314952Y-41362381D01*
X25219714Y-41362381D01*
X26029238Y-40457619D02*
X26076857Y-40410000D01*
X26172095Y-40362381D01*
X26410191Y-40362381D01*
X26505429Y-40410000D01*
X26553048Y-40457619D01*
X26600667Y-40552857D01*
X26600667Y-40648095D01*
X26553048Y-40790952D01*
X25981619Y-41362381D01*
X26600667Y-41362381D01*
X71294667Y-22312381D02*
X71294667Y-23026667D01*
X71247047Y-23169524D01*
X71151809Y-23264762D01*
X71008952Y-23312381D01*
X70913714Y-23312381D01*
X71675619Y-22312381D02*
X72294667Y-22312381D01*
X71961333Y-22693333D01*
X72104191Y-22693333D01*
X72199429Y-22740952D01*
X72247048Y-22788571D01*
X72294667Y-22883810D01*
X72294667Y-23121905D01*
X72247048Y-23217143D01*
X72199429Y-23264762D01*
X72104191Y-23312381D01*
X71818476Y-23312381D01*
X71723238Y-23264762D01*
X71675619Y-23217143D01*
%LPC*%
X55994000Y-33080000D02*
G75*
G03X55994000Y-33080000I-6060000J0D01*
G01*
D14*
X49934000Y-27020000D03*
X55184000Y-36120000D03*
X44684000Y-36120000D03*
D15*
X55994000Y-33080000D03*
X43874000Y-33080000D03*
D16*
X75434000Y-33080000D03*
D17*
X40284000Y-42730000D03*
X59584000Y-42730000D03*
X40284000Y-23430000D03*
X59584000Y-23430000D03*
D18*
X63208000Y-38608000D03*
X65108000Y-38608000D03*
D19*
X65090000Y-35620000D03*
X67290000Y-35620000D03*
X65090000Y-31048000D03*
X67290000Y-31048000D03*
D20*
X25934000Y-43240000D03*
D21*
X25934000Y-45780000D03*
D20*
X74064000Y-20380000D03*
D21*
X74064000Y-22920000D03*
D16*
X24434000Y-33080000D03*
D22*
G36*
X51306073Y-27305329D02*
X52576544Y-27793971D01*
X53657232Y-28481682D01*
X54535979Y-29262791D01*
X55023109Y-30042198D01*
X55513197Y-31022374D01*
X55807000Y-32393455D01*
X55807000Y-33764366D01*
X55514785Y-34933224D01*
X54432916Y-36900260D01*
X53355625Y-37879615D01*
X52477706Y-38464895D01*
X51307820Y-38854857D01*
X50228244Y-38953000D01*
X48951789Y-38953000D01*
X47582919Y-38561894D01*
X46706121Y-38074784D01*
X45531425Y-37095871D01*
X44449909Y-35326118D01*
X44158105Y-34450704D01*
X43962004Y-33077998D01*
X44059614Y-32199508D01*
X44255199Y-31221582D01*
X44941575Y-29848829D01*
X45331806Y-29361041D01*
X45919027Y-28675950D01*
X47097868Y-27890056D01*
X47880235Y-27498873D01*
X48556210Y-27305737D01*
X49934000Y-27207323D01*
X51306073Y-27305329D01*
X51306073Y-27305329D01*
G37*
X51306073Y-27305329D02*
X52576544Y-27793971D01*
X53657232Y-28481682D01*
X54535979Y-29262791D01*
X55023109Y-30042198D01*
X55513197Y-31022374D01*
X55807000Y-32393455D01*
X55807000Y-33764366D01*
X55514785Y-34933224D01*
X54432916Y-36900260D01*
X53355625Y-37879615D01*
X52477706Y-38464895D01*
X51307820Y-38854857D01*
X50228244Y-38953000D01*
X48951789Y-38953000D01*
X47582919Y-38561894D01*
X46706121Y-38074784D01*
X45531425Y-37095871D01*
X44449909Y-35326118D01*
X44158105Y-34450704D01*
X43962004Y-33077998D01*
X44059614Y-32199508D01*
X44255199Y-31221582D01*
X44941575Y-29848829D01*
X45331806Y-29361041D01*
X45919027Y-28675950D01*
X47097868Y-27890056D01*
X47880235Y-27498873D01*
X48556210Y-27305737D01*
X49934000Y-27207323D01*
X51306073Y-27305329D01*
M02*
