%TF.GenerationSoftware,KiCad,Pcbnew,4.0.6*%
%TF.CreationDate,2017-08-02T23:43:12-07:00*%
%TF.ProjectId,difficult-button,646966666963756C742D627574746F6E,rev?*%
%TF.FileFunction,Soldermask,Bot*%
%FSLAX46Y46*%
G04 Gerber Fmt 4.6, Leading zero omitted, Abs format (unit mm)*
G04 Created by KiCad (PCBNEW 4.0.6) date 08/02/17 23:43:12*
%MOMM*%
%LPD*%
G01*
G04 APERTURE LIST*
%ADD10C,0.100000*%
%ADD11C,2.400000*%
%ADD12C,3.400000*%
%ADD13C,6.400000*%
%ADD14R,1.600000X1.150000*%
%ADD15R,1.000000X1.900000*%
%ADD16R,2.100000X2.100000*%
%ADD17O,2.100000X2.100000*%
%ADD18R,3.400000X3.400000*%
G04 APERTURE END LIST*
D10*
D11*
X49934000Y-27020000D03*
X55184000Y-36120000D03*
X44684000Y-36120000D03*
D12*
X75434000Y-33080000D03*
D13*
X40284000Y-42730000D03*
X59584000Y-42730000D03*
X40284000Y-23430000D03*
X59584000Y-23430000D03*
D14*
X67846000Y-39684000D03*
X69746000Y-39684000D03*
X63716000Y-41208000D03*
X65616000Y-41208000D03*
X67780000Y-26476000D03*
X69680000Y-26476000D03*
X63208000Y-39684000D03*
X65108000Y-39684000D03*
D15*
X61364000Y-28280000D03*
X62634000Y-28280000D03*
X63904000Y-28280000D03*
X65174000Y-28280000D03*
X66444000Y-28280000D03*
X67714000Y-28280000D03*
X68984000Y-28280000D03*
X70254000Y-28280000D03*
X70254000Y-37580000D03*
X68984000Y-37580000D03*
X67714000Y-37580000D03*
X66444000Y-37580000D03*
X65174000Y-37580000D03*
X63904000Y-37580000D03*
X62634000Y-37580000D03*
X61364000Y-37580000D03*
D16*
X25934000Y-43240000D03*
D17*
X25934000Y-45780000D03*
D16*
X74064000Y-20380000D03*
D17*
X74064000Y-22920000D03*
D12*
X24434000Y-33080000D03*
D18*
X65682000Y-20380000D03*
X53998000Y-20380000D03*
X49934000Y-20380000D03*
X45870000Y-20380000D03*
X34059000Y-20380000D03*
X26439000Y-20380000D03*
X30249000Y-20380000D03*
M02*
