%TF.GenerationSoftware,KiCad,Pcbnew,4.0.6*%
%TF.CreationDate,2017-08-02T23:43:12-07:00*%
%TF.ProjectId,difficult-button,646966666963756C742D627574746F6E,rev?*%
%TF.FileFunction,Soldermask,Top*%
%FSLAX46Y46*%
G04 Gerber Fmt 4.6, Leading zero omitted, Abs format (unit mm)*
G04 Created by KiCad (PCBNEW 4.0.6) date 08/02/17 23:43:12*
%MOMM*%
%LPD*%
G01*
G04 APERTURE LIST*
%ADD10C,0.100000*%
%ADD11C,0.150000*%
%ADD12C,2.400000*%
%ADD13R,1.400000X1.400000*%
%ADD14C,3.400000*%
%ADD15C,6.400000*%
%ADD16R,1.600000X1.150000*%
%ADD17R,1.600000X1.300000*%
%ADD18R,2.100000X2.100000*%
%ADD19O,2.100000X2.100000*%
%ADD20C,0.254000*%
G04 APERTURE END LIST*
D10*
D11*
X55994000Y-33080000D02*
G75*
G03X55994000Y-33080000I-6060000J0D01*
G01*
D12*
X49934000Y-27020000D03*
X55184000Y-36120000D03*
X44684000Y-36120000D03*
D13*
X55994000Y-33080000D03*
X43874000Y-33080000D03*
D14*
X75434000Y-33080000D03*
D15*
X40284000Y-42730000D03*
X59584000Y-42730000D03*
X40284000Y-23430000D03*
X59584000Y-23430000D03*
D16*
X63208000Y-38608000D03*
X65108000Y-38608000D03*
D17*
X65090000Y-35620000D03*
X67290000Y-35620000D03*
X65090000Y-31048000D03*
X67290000Y-31048000D03*
D18*
X25934000Y-43240000D03*
D19*
X25934000Y-45780000D03*
D18*
X74064000Y-20380000D03*
D19*
X74064000Y-22920000D03*
D14*
X24434000Y-33080000D03*
D20*
G36*
X51306073Y-27305329D02*
X52576544Y-27793971D01*
X53657232Y-28481682D01*
X54535979Y-29262791D01*
X55023109Y-30042198D01*
X55513197Y-31022374D01*
X55807000Y-32393455D01*
X55807000Y-33764366D01*
X55514785Y-34933224D01*
X54432916Y-36900260D01*
X53355625Y-37879615D01*
X52477706Y-38464895D01*
X51307820Y-38854857D01*
X50228244Y-38953000D01*
X48951789Y-38953000D01*
X47582919Y-38561894D01*
X46706121Y-38074784D01*
X45531425Y-37095871D01*
X44449909Y-35326118D01*
X44158105Y-34450704D01*
X43962004Y-33077998D01*
X44059614Y-32199508D01*
X44255199Y-31221582D01*
X44941575Y-29848829D01*
X45331806Y-29361041D01*
X45919027Y-28675950D01*
X47097868Y-27890056D01*
X47880235Y-27498873D01*
X48556210Y-27305737D01*
X49934000Y-27207323D01*
X51306073Y-27305329D01*
X51306073Y-27305329D01*
G37*
X51306073Y-27305329D02*
X52576544Y-27793971D01*
X53657232Y-28481682D01*
X54535979Y-29262791D01*
X55023109Y-30042198D01*
X55513197Y-31022374D01*
X55807000Y-32393455D01*
X55807000Y-33764366D01*
X55514785Y-34933224D01*
X54432916Y-36900260D01*
X53355625Y-37879615D01*
X52477706Y-38464895D01*
X51307820Y-38854857D01*
X50228244Y-38953000D01*
X48951789Y-38953000D01*
X47582919Y-38561894D01*
X46706121Y-38074784D01*
X45531425Y-37095871D01*
X44449909Y-35326118D01*
X44158105Y-34450704D01*
X43962004Y-33077998D01*
X44059614Y-32199508D01*
X44255199Y-31221582D01*
X44941575Y-29848829D01*
X45331806Y-29361041D01*
X45919027Y-28675950D01*
X47097868Y-27890056D01*
X47880235Y-27498873D01*
X48556210Y-27305737D01*
X49934000Y-27207323D01*
X51306073Y-27305329D01*
M02*
