%TF.GenerationSoftware,KiCad,Pcbnew,4.0.6*%
%TF.CreationDate,2017-08-02T23:43:12-07:00*%
%TF.ProjectId,difficult-button,646966666963756C742D627574746F6E,rev?*%
%TF.FileFunction,Legend,Bot*%
%FSLAX46Y46*%
G04 Gerber Fmt 4.6, Leading zero omitted, Abs format (unit mm)*
G04 Created by KiCad (PCBNEW 4.0.6) date 08/02/17 23:43:12*
%MOMM*%
%LPD*%
G01*
G04 APERTURE LIST*
%ADD10C,0.100000*%
%ADD11C,0.200000*%
%ADD12C,0.120000*%
%ADD13C,0.150000*%
%ADD14C,2.400000*%
%ADD15C,3.400000*%
%ADD16C,6.400000*%
%ADD17R,1.600000X1.150000*%
%ADD18R,1.000000X1.900000*%
%ADD19R,2.100000X2.100000*%
%ADD20O,2.100000X2.100000*%
%ADD21R,3.400000X3.400000*%
G04 APERTURE END LIST*
D10*
D11*
X66063762Y-22288476D02*
X66111381Y-22431333D01*
X66111381Y-22669429D01*
X66063762Y-22764667D01*
X66016143Y-22812286D01*
X65920905Y-22859905D01*
X65825667Y-22859905D01*
X65730429Y-22812286D01*
X65682810Y-22764667D01*
X65635190Y-22669429D01*
X65587571Y-22478952D01*
X65539952Y-22383714D01*
X65492333Y-22336095D01*
X65397095Y-22288476D01*
X65301857Y-22288476D01*
X65206619Y-22336095D01*
X65159000Y-22383714D01*
X65111381Y-22478952D01*
X65111381Y-22717048D01*
X65159000Y-22859905D01*
X66063762Y-23240857D02*
X66111381Y-23383714D01*
X66111381Y-23621810D01*
X66063762Y-23717048D01*
X66016143Y-23764667D01*
X65920905Y-23812286D01*
X65825667Y-23812286D01*
X65730429Y-23764667D01*
X65682810Y-23717048D01*
X65635190Y-23621810D01*
X65587571Y-23431333D01*
X65539952Y-23336095D01*
X65492333Y-23288476D01*
X65397095Y-23240857D01*
X65301857Y-23240857D01*
X65206619Y-23288476D01*
X65159000Y-23336095D01*
X65111381Y-23431333D01*
X65111381Y-23669429D01*
X65159000Y-23812286D01*
X65587571Y-24574191D02*
X65635190Y-24717048D01*
X65682810Y-24764667D01*
X65778048Y-24812286D01*
X65920905Y-24812286D01*
X66016143Y-24764667D01*
X66063762Y-24717048D01*
X66111381Y-24621810D01*
X66111381Y-24240857D01*
X65111381Y-24240857D01*
X65111381Y-24574191D01*
X65159000Y-24669429D01*
X65206619Y-24717048D01*
X65301857Y-24764667D01*
X65397095Y-24764667D01*
X65492333Y-24717048D01*
X65539952Y-24669429D01*
X65587571Y-24574191D01*
X65587571Y-24240857D01*
X54427381Y-22907524D02*
X53951190Y-22574190D01*
X54427381Y-22336095D02*
X53427381Y-22336095D01*
X53427381Y-22717048D01*
X53475000Y-22812286D01*
X53522619Y-22859905D01*
X53617857Y-22907524D01*
X53760714Y-22907524D01*
X53855952Y-22859905D01*
X53903571Y-22812286D01*
X53951190Y-22717048D01*
X53951190Y-22336095D01*
X54427381Y-23336095D02*
X53427381Y-23336095D01*
X53427381Y-23574190D01*
X53475000Y-23717048D01*
X53570238Y-23812286D01*
X53665476Y-23859905D01*
X53855952Y-23907524D01*
X53998810Y-23907524D01*
X54189286Y-23859905D01*
X54284524Y-23812286D01*
X54379762Y-23717048D01*
X54427381Y-23574190D01*
X54427381Y-23336095D01*
X53951190Y-24526571D02*
X54427381Y-24526571D01*
X53427381Y-24193238D02*
X53951190Y-24526571D01*
X53427381Y-24859905D01*
X50363381Y-22336095D02*
X49363381Y-22336095D01*
X50077667Y-22669429D01*
X49363381Y-23002762D01*
X50363381Y-23002762D01*
X50363381Y-23478952D02*
X49363381Y-23478952D01*
X50315762Y-23907523D02*
X50363381Y-24050380D01*
X50363381Y-24288476D01*
X50315762Y-24383714D01*
X50268143Y-24431333D01*
X50172905Y-24478952D01*
X50077667Y-24478952D01*
X49982429Y-24431333D01*
X49934810Y-24383714D01*
X49887190Y-24288476D01*
X49839571Y-24097999D01*
X49791952Y-24002761D01*
X49744333Y-23955142D01*
X49649095Y-23907523D01*
X49553857Y-23907523D01*
X49458619Y-23955142D01*
X49411000Y-24002761D01*
X49363381Y-24097999D01*
X49363381Y-24336095D01*
X49411000Y-24478952D01*
X49363381Y-25097999D02*
X49363381Y-25288476D01*
X49411000Y-25383714D01*
X49506238Y-25478952D01*
X49696714Y-25526571D01*
X50030048Y-25526571D01*
X50220524Y-25478952D01*
X50315762Y-25383714D01*
X50363381Y-25288476D01*
X50363381Y-25097999D01*
X50315762Y-25002761D01*
X50220524Y-24907523D01*
X50030048Y-24859904D01*
X49696714Y-24859904D01*
X49506238Y-24907523D01*
X49411000Y-25002761D01*
X49363381Y-25097999D01*
X46251762Y-22288476D02*
X46299381Y-22431333D01*
X46299381Y-22669429D01*
X46251762Y-22764667D01*
X46204143Y-22812286D01*
X46108905Y-22859905D01*
X46013667Y-22859905D01*
X45918429Y-22812286D01*
X45870810Y-22764667D01*
X45823190Y-22669429D01*
X45775571Y-22478952D01*
X45727952Y-22383714D01*
X45680333Y-22336095D01*
X45585095Y-22288476D01*
X45489857Y-22288476D01*
X45394619Y-22336095D01*
X45347000Y-22383714D01*
X45299381Y-22478952D01*
X45299381Y-22717048D01*
X45347000Y-22859905D01*
X46204143Y-23859905D02*
X46251762Y-23812286D01*
X46299381Y-23669429D01*
X46299381Y-23574191D01*
X46251762Y-23431333D01*
X46156524Y-23336095D01*
X46061286Y-23288476D01*
X45870810Y-23240857D01*
X45727952Y-23240857D01*
X45537476Y-23288476D01*
X45442238Y-23336095D01*
X45347000Y-23431333D01*
X45299381Y-23574191D01*
X45299381Y-23669429D01*
X45347000Y-23812286D01*
X45394619Y-23859905D01*
X46299381Y-24764667D02*
X46299381Y-24288476D01*
X45299381Y-24288476D01*
X46299381Y-25098000D02*
X45299381Y-25098000D01*
X46299381Y-25669429D02*
X45727952Y-25240857D01*
X45299381Y-25669429D02*
X45870810Y-25098000D01*
X34511381Y-22336095D02*
X33511381Y-22336095D01*
X34225667Y-22669429D01*
X33511381Y-23002762D01*
X34511381Y-23002762D01*
X33511381Y-23669428D02*
X33511381Y-23859905D01*
X33559000Y-23955143D01*
X33654238Y-24050381D01*
X33844714Y-24098000D01*
X34178048Y-24098000D01*
X34368524Y-24050381D01*
X34463762Y-23955143D01*
X34511381Y-23859905D01*
X34511381Y-23669428D01*
X34463762Y-23574190D01*
X34368524Y-23478952D01*
X34178048Y-23431333D01*
X33844714Y-23431333D01*
X33654238Y-23478952D01*
X33559000Y-23574190D01*
X33511381Y-23669428D01*
X34463762Y-24478952D02*
X34511381Y-24621809D01*
X34511381Y-24859905D01*
X34463762Y-24955143D01*
X34416143Y-25002762D01*
X34320905Y-25050381D01*
X34225667Y-25050381D01*
X34130429Y-25002762D01*
X34082810Y-24955143D01*
X34035190Y-24859905D01*
X33987571Y-24669428D01*
X33939952Y-24574190D01*
X33892333Y-24526571D01*
X33797095Y-24478952D01*
X33701857Y-24478952D01*
X33606619Y-24526571D01*
X33559000Y-24574190D01*
X33511381Y-24669428D01*
X33511381Y-24907524D01*
X33559000Y-25050381D01*
X34511381Y-25478952D02*
X33511381Y-25478952D01*
X29726000Y-22859905D02*
X29678381Y-22764667D01*
X29678381Y-22621810D01*
X29726000Y-22478952D01*
X29821238Y-22383714D01*
X29916476Y-22336095D01*
X30106952Y-22288476D01*
X30249810Y-22288476D01*
X30440286Y-22336095D01*
X30535524Y-22383714D01*
X30630762Y-22478952D01*
X30678381Y-22621810D01*
X30678381Y-22717048D01*
X30630762Y-22859905D01*
X30583143Y-22907524D01*
X30249810Y-22907524D01*
X30249810Y-22717048D01*
X30678381Y-23336095D02*
X29678381Y-23336095D01*
X30678381Y-23907524D01*
X29678381Y-23907524D01*
X30678381Y-24383714D02*
X29678381Y-24383714D01*
X29678381Y-24621809D01*
X29726000Y-24764667D01*
X29821238Y-24859905D01*
X29916476Y-24907524D01*
X30106952Y-24955143D01*
X30249810Y-24955143D01*
X30440286Y-24907524D01*
X30535524Y-24859905D01*
X30630762Y-24764667D01*
X30678381Y-24621809D01*
X30678381Y-24383714D01*
X26344571Y-22669429D02*
X26392190Y-22812286D01*
X26439810Y-22859905D01*
X26535048Y-22907524D01*
X26677905Y-22907524D01*
X26773143Y-22859905D01*
X26820762Y-22812286D01*
X26868381Y-22717048D01*
X26868381Y-22336095D01*
X25868381Y-22336095D01*
X25868381Y-22669429D01*
X25916000Y-22764667D01*
X25963619Y-22812286D01*
X26058857Y-22859905D01*
X26154095Y-22859905D01*
X26249333Y-22812286D01*
X26296952Y-22764667D01*
X26344571Y-22669429D01*
X26344571Y-22336095D01*
X26582667Y-23288476D02*
X26582667Y-23764667D01*
X26868381Y-23193238D02*
X25868381Y-23526571D01*
X26868381Y-23859905D01*
X25868381Y-24050381D02*
X25868381Y-24621810D01*
X26868381Y-24336095D02*
X25868381Y-24336095D01*
X25868381Y-24812286D02*
X25868381Y-25383715D01*
X26868381Y-25098000D02*
X25868381Y-25098000D01*
D12*
X68446000Y-40284000D02*
X69146000Y-40284000D01*
X69146000Y-39084000D02*
X68446000Y-39084000D01*
X64316000Y-41808000D02*
X65016000Y-41808000D01*
X65016000Y-40608000D02*
X64316000Y-40608000D01*
X68380000Y-27076000D02*
X69080000Y-27076000D01*
X69080000Y-25876000D02*
X68380000Y-25876000D01*
X63808000Y-40284000D02*
X64508000Y-40284000D01*
X64508000Y-39084000D02*
X63808000Y-39084000D01*
D13*
X60484000Y-29055000D02*
X60759000Y-29055000D01*
X60484000Y-36805000D02*
X60839000Y-36805000D01*
X71134000Y-36805000D02*
X70779000Y-36805000D01*
X71134000Y-29055000D02*
X70779000Y-29055000D01*
X60484000Y-29055000D02*
X60484000Y-36805000D01*
X71134000Y-29055000D02*
X71134000Y-36805000D01*
X60759000Y-29055000D02*
X60759000Y-27530000D01*
X71995666Y-40101143D02*
X72043285Y-40148762D01*
X72186142Y-40196381D01*
X72281380Y-40196381D01*
X72424238Y-40148762D01*
X72519476Y-40053524D01*
X72567095Y-39958286D01*
X72614714Y-39767810D01*
X72614714Y-39624952D01*
X72567095Y-39434476D01*
X72519476Y-39339238D01*
X72424238Y-39244000D01*
X72281380Y-39196381D01*
X72186142Y-39196381D01*
X72043285Y-39244000D01*
X71995666Y-39291619D01*
X71614714Y-39291619D02*
X71567095Y-39244000D01*
X71471857Y-39196381D01*
X71233761Y-39196381D01*
X71138523Y-39244000D01*
X71090904Y-39291619D01*
X71043285Y-39386857D01*
X71043285Y-39482095D01*
X71090904Y-39624952D01*
X71662333Y-40196381D01*
X71043285Y-40196381D01*
X68261666Y-41672143D02*
X68309285Y-41719762D01*
X68452142Y-41767381D01*
X68547380Y-41767381D01*
X68690238Y-41719762D01*
X68785476Y-41624524D01*
X68833095Y-41529286D01*
X68880714Y-41338810D01*
X68880714Y-41195952D01*
X68833095Y-41005476D01*
X68785476Y-40910238D01*
X68690238Y-40815000D01*
X68547380Y-40767381D01*
X68452142Y-40767381D01*
X68309285Y-40815000D01*
X68261666Y-40862619D01*
X67928333Y-40767381D02*
X67309285Y-40767381D01*
X67642619Y-41148333D01*
X67499761Y-41148333D01*
X67404523Y-41195952D01*
X67356904Y-41243571D01*
X67309285Y-41338810D01*
X67309285Y-41576905D01*
X67356904Y-41672143D01*
X67404523Y-41719762D01*
X67499761Y-41767381D01*
X67785476Y-41767381D01*
X67880714Y-41719762D01*
X67928333Y-41672143D01*
X71690666Y-26305143D02*
X71738285Y-26352762D01*
X71881142Y-26400381D01*
X71976380Y-26400381D01*
X72119238Y-26352762D01*
X72214476Y-26257524D01*
X72262095Y-26162286D01*
X72309714Y-25971810D01*
X72309714Y-25828952D01*
X72262095Y-25638476D01*
X72214476Y-25543238D01*
X72119238Y-25448000D01*
X71976380Y-25400381D01*
X71881142Y-25400381D01*
X71738285Y-25448000D01*
X71690666Y-25495619D01*
X70833523Y-25733714D02*
X70833523Y-26400381D01*
X71071619Y-25352762D02*
X71309714Y-26067048D01*
X70690666Y-26067048D01*
X61530666Y-39767143D02*
X61578285Y-39814762D01*
X61721142Y-39862381D01*
X61816380Y-39862381D01*
X61959238Y-39814762D01*
X62054476Y-39719524D01*
X62102095Y-39624286D01*
X62149714Y-39433810D01*
X62149714Y-39290952D01*
X62102095Y-39100476D01*
X62054476Y-39005238D01*
X61959238Y-38910000D01*
X61816380Y-38862381D01*
X61721142Y-38862381D01*
X61578285Y-38910000D01*
X61530666Y-38957619D01*
X60625904Y-38862381D02*
X61102095Y-38862381D01*
X61149714Y-39338571D01*
X61102095Y-39290952D01*
X61006857Y-39243333D01*
X60768761Y-39243333D01*
X60673523Y-39290952D01*
X60625904Y-39338571D01*
X60578285Y-39433810D01*
X60578285Y-39671905D01*
X60625904Y-39767143D01*
X60673523Y-39814762D01*
X60768761Y-39862381D01*
X61006857Y-39862381D01*
X61102095Y-39814762D01*
X61149714Y-39767143D01*
X59011381Y-32168095D02*
X59820905Y-32168095D01*
X59916143Y-32215714D01*
X59963762Y-32263333D01*
X60011381Y-32358571D01*
X60011381Y-32549048D01*
X59963762Y-32644286D01*
X59916143Y-32691905D01*
X59820905Y-32739524D01*
X59011381Y-32739524D01*
X60011381Y-33739524D02*
X60011381Y-33168095D01*
X60011381Y-33453809D02*
X59011381Y-33453809D01*
X59154238Y-33358571D01*
X59249476Y-33263333D01*
X59297095Y-33168095D01*
%LPC*%
D14*
X49934000Y-27020000D03*
X55184000Y-36120000D03*
X44684000Y-36120000D03*
D15*
X75434000Y-33080000D03*
D16*
X40284000Y-42730000D03*
X59584000Y-42730000D03*
X40284000Y-23430000D03*
X59584000Y-23430000D03*
D17*
X67846000Y-39684000D03*
X69746000Y-39684000D03*
X63716000Y-41208000D03*
X65616000Y-41208000D03*
X67780000Y-26476000D03*
X69680000Y-26476000D03*
X63208000Y-39684000D03*
X65108000Y-39684000D03*
D18*
X61364000Y-28280000D03*
X62634000Y-28280000D03*
X63904000Y-28280000D03*
X65174000Y-28280000D03*
X66444000Y-28280000D03*
X67714000Y-28280000D03*
X68984000Y-28280000D03*
X70254000Y-28280000D03*
X70254000Y-37580000D03*
X68984000Y-37580000D03*
X67714000Y-37580000D03*
X66444000Y-37580000D03*
X65174000Y-37580000D03*
X63904000Y-37580000D03*
X62634000Y-37580000D03*
X61364000Y-37580000D03*
D19*
X25934000Y-43240000D03*
D20*
X25934000Y-45780000D03*
D19*
X74064000Y-20380000D03*
D20*
X74064000Y-22920000D03*
D15*
X24434000Y-33080000D03*
D21*
X65682000Y-20380000D03*
X53998000Y-20380000D03*
X49934000Y-20380000D03*
X45870000Y-20380000D03*
X34059000Y-20380000D03*
X26439000Y-20380000D03*
X30249000Y-20380000D03*
M02*
