M48
;DRILL file {KiCad 4.0.6} date 08/03/17 08:27:12
;FORMAT={-:-/ absolute / inch / decimal}
FMAT,2
INCH,TZ
T1C0.012
T2C0.039
T3C0.079
T4C0.118
T5C0.236
%
G90
G05
M72
T1
X1.1909Y-0.8024
X2.1059Y-1.4824
X2.1209Y-1.5774
X2.1609Y-1.5774
X2.2494Y-1.3024
X2.2709Y-1.1124
X2.273Y-1.237
X2.5053Y-1.1724
X2.5643Y-1.4362
X2.6155Y-1.0504
X2.6159Y-1.5424
X2.6273Y-1.6213
X2.6509Y-1.4362
X2.6667Y-1.1724
X2.7927Y-1.5346
X2.8045Y-1.078
T2
X1.021Y-1.7024
X1.021Y-1.8024
X2.9159Y-0.8024
X2.9159Y-0.9024
T3
X1.7592Y-1.422
X1.9659Y-1.0638
X2.1726Y-1.422
T4
X0.962Y-1.3024
X2.9698Y-1.3024
T5
X1.586Y-0.9224
X1.586Y-1.6823
X2.3458Y-0.9224
X2.3458Y-1.6823
T0
M30
